<?xml version="1.0" encoding="UTF-8"?>
<svg xmlns="http://www.w3.org/2000/svg" version="1.1" viewBox="0 0 300 200">
  <!-- Generator: Adobe Illustrator 29.1.0, SVG Export Plug-In . SVG Version: 2.1.0 Build 142)  -->
  <defs>
    <style>
      .st0 {
        fill: #e83838;
      }

      .st1 {
        fill: #fff4c5;
      }

      .st2 {
        fill: #ff7b31;
      }

      .st3 {
        fill: #edbf74;
      }

      .st4 {
        fill: #f9edbb;
      }

      .st5 {
        opacity: .6;
      }

      .st5, .st6 {
        mix-blend-mode: multiply;
      }

      .st5, .st6, .st7 {
        fill: #a34f5d;
      }

      .st8 {
        opacity: .6;
      }

      .st8, .st9, .st10 {
        mix-blend-mode: overlay;
      }

      .st8, .st9, .st10, .st11 {
        fill: #fff;
      }

      .st9 {
        opacity: .7;
      }

      .st10 {
        opacity: .8;
      }

      .st12 {
        fill: #563944;
      }

      .st13 {
        fill: #ff4545;
      }

      .st14 {
        fill: #ff983b;
      }

      .st15 {
        fill: #6b2f3c;
      }

      .st16 {
        fill: #ed3a6d;
      }

      .st17 {
        fill: #ddb6c1;
      }

      .st18 {
        fill: #873647;
      }

      .st19 {
        fill: #e8c580;
      }

      .st20 {
        fill: #f2d3db;
      }

      .st21 {
        isolation: isolate;
      }

      .st22 {
        fill: #d8ab5b;
      }

      .st23 {
        fill: #4c3f42;
      }

      .st24 {
        fill: #60454e;
      }

      .st25 {
        fill: #ffb53e;
      }

      .st26 {
        fill: #fffbdc;
      }

      .st27 {
        fill: #b73ea9;
      }

      .st28 {
        fill: #ffad4a;
      }

      .st29 {
        fill: #f7dfa4;
      }

      .st30 {
        fill: #e0245e;
      }

      .st31 {
        fill: #a7c44b;
      }

      .st32 {
        fill: #d31856;
      }

      .st33 {
        fill: #562e37;
      }

      .st34 {
        fill: #cc4cc3;
      }

      .st35 {
        fill: #ffc85a;
      }

      .st36 {
        fill: #724e4e;
      }

      .st37 {
        fill: #704f5a;
      }

      .st38 {
        fill: #dae576;
      }

      .st39 {
        fill: #ff4571;
      }

      .st40 {
        fill: #ffdc48;
      }

      .st41 {
        fill: #826a71;
      }

      .st42 {
        fill: #ef5252;
      }

      .st43 {
        fill: #e0bfc8;
      }

      .st44 {
        fill: #ede1b0;
      }

      .st45 {
        fill: #dbc69a;
      }

      .st46 {
        fill: #ca5fd6;
      }

      .st47 {
        fill: #593737;
      }

      .st48 {
        fill: #f2dae2;
      }
    </style>
  </defs>
  <g class="st21">
    <g id="Layer_1">
      <g>
        <path class="st31" d="M291.2,177.6H7s50.9,10.7,151,10.7,133.2-10.7,133.2-10.7Z"/>
        <g>
          <path class="st38" d="M200.9,35.2c1.2-.6,2-2.4,1.2-4.1-.8-1.7-6.1.7-5.3,2.4.8,1.6,2.9,2.3,4.1,1.7Z"/>
          <path class="st38" d="M186.1,49.6c.5.8,1.8.8,2.9.1,1-.6,1.4-1.5,1.1-2.2-.3-.6-1.4-.8-2.5-.4-1.2.5-2,1.7-1.5,2.5Z"/>
          <g>
            <path class="st38" d="M182.9,24.6c.5.9,2,1,3.2.3,1-.6,2.2-2.4,2.2-3-.6-.4-2.6-.5-3.8,0-1.3.5-2.1,1.8-1.6,2.7Z"/>
            <path class="st38" d="M189.1,25.9c.9-.5,1.2-1.8.6-2.7-.5-.8-2.1-1.6-2.6-1.6-.4.6-.7,2.3-.4,3.2.4,1.1,1.5,1.6,2.4,1.1Z"/>
            <path class="st38" d="M185.6,18.6c-.9.5-1.2,1.8-.6,2.7.5.8,2.1,1.6,2.6,1.6.4-.6.7-2.3.4-3.2-.4-1.1-1.5-1.6-2.5-1.1Z"/>
            <path class="st38" d="M191,20.4c-.5-.9-1.8-1.1-2.7-.5-.8.5-1.6,2.1-1.6,2.7.6.4,2.3.7,3.2.3,1.1-.4,1.6-1.6,1.1-2.5Z"/>
          </g>
          <g>
            <path class="st38" d="M182.3,64.2c.1,1.1,1.5,1.7,2.8,1.4,1.2-.2,2.9-1.5,3.1-2-.4-.6-2.3-1.4-3.5-1.4-1.4,0-2.6.9-2.4,2Z"/>
            <path class="st38" d="M187.6,67.7c1.1-.2,1.7-1.3,1.5-2.4-.2-1-1.4-2.3-1.9-2.5-.6.4-1.5,1.9-1.5,2.9,0,1.1.8,2.1,1.9,1.9Z"/>
            <path class="st38" d="M187,59.5c-1.1.2-1.7,1.3-1.5,2.4.2,1,1.4,2.3,1.9,2.5.6-.4,1.5-1.9,1.5-2.9,0-1.2-.8-2.1-1.9-1.9Z"/>
            <path class="st38" d="M191.3,63.2c-.1-1.1-1.2-1.7-2.3-1.5-.9.2-2.3,1.4-2.5,1.9.4.6,1.9,1.5,2.8,1.5,1.1,0,2.1-.9,1.9-1.9Z"/>
          </g>
          <g>
            <path class="st38" d="M209.2,53.9c0,.6.8.9,1.6.8.7-.1,1.6-.8,1.7-1.1-.2-.3-1.3-.8-1.9-.8-.8,0-1.4.5-1.4,1.1Z"/>
            <path class="st38" d="M212.1,55.9c.6,0,1-.7.8-1.3,0-.5-.8-1.3-1-1.4-.3.2-.8,1.1-.8,1.6,0,.6.4,1.2,1,1.1Z"/>
            <path class="st38" d="M211.8,51.3c-.6,0-.9.7-.8,1.3,0,.5.8,1.3,1,1.4.3-.2.8-1.1.8-1.6,0-.6-.5-1.2-1-1.1Z"/>
            <path class="st38" d="M214.2,53.4c0-.6-.7-.9-1.3-.8-.5.1-1.3.8-1.4,1.1.2.3,1,.8,1.6.8.6,0,1.2-.5,1.1-1.1Z"/>
          </g>
          <g>
            <path class="st38" d="M212.3,34.3c0,.7.7,1.2,1.6,1.2.8,0,2.2-.9,2.4-1.3-.3-.5-1.6-1.1-2.4-1.2-.9,0-1.6.6-1.7,1.3Z"/>
            <path class="st38" d="M215.5,37.4c.9,0,1.5-.8,1.4-1.7,0-.8-.9-1.9-1.3-2.1-.5.3-1.2,1.3-1.3,2.1-.1.9.4,1.7,1.2,1.7Z"/>
            <path class="st38" d="M215.7,31.1c-.8.2-1.3,1-1.3,1.7,0,.7.8,1.7,1.1,1.9.5-.3,1.3-1.4,1.4-2.2.1-.9-.5-1.6-1.3-1.4Z"/>
            <path class="st38" d="M219.1,34c0-.9-1-1.5-2-1.3-.8.1-1.9,1.1-2.1,1.4.2.5,1.3,1.3,2.1,1.4,1,.1,2-.5,1.9-1.5Z"/>
          </g>
          <g>
            <path class="st38" d="M199.5,9.3c-.9.9-.7,2.5.4,3.5,1,1,3.7,1.7,4.5,1.5.2-1-.4-3.4-1.3-4.5-1-1.1-2.6-1.4-3.6-.6Z"/>
            <path class="st38" d="M199.4,17.1c.9,1.2,2.8,1,3.9-.3.9-1.1,1.4-3.5,1.1-4.2-.9-.3-3.1,0-4.2.8-1.2.9-1.7,2.5-.8,3.6Z"/>
            <path class="st38" d="M207.6,9.7c-1.1-.8-2.7-.5-3.7.5-.8.9-1.3,3.1-1.1,3.8.9.3,3.3,0,4.5-.9,1.3-.9,1.4-2.6.3-3.4Z"/>
            <path class="st38" d="M207.7,17.6c1.1-1.2.7-3.1-.7-4.1-1.1-.8-3.5-1.2-4.2-.9-.3.8-.1,3.2.7,4.4,1,1.5,3,1.9,4.2.7Z"/>
          </g>
          <g>
            <path class="st38" d="M162.5,25.7c-.6.9-.1,2.3,1.1,3,1.1.6,3.6.7,4.3.4,0-.9-1.1-2.9-2.1-3.6-1.1-.8-2.6-.7-3.2.3Z"/>
            <path class="st38" d="M164,32.6c1.1.8,2.6.3,3.3-1.1.6-1.1.5-3.4.1-3.9-.8,0-2.7.7-3.5,1.6-.9,1-.9,2.6,0,3.3Z"/>
            <path class="st38" d="M169.7,24.4c-1.1-.5-2.5.2-3.1,1.2-.5,1-.5,3-.2,3.5.8,0,2.9-.7,3.8-1.7.9-1.1.7-2.5-.5-3Z"/>
            <path class="st38" d="M171.5,31.2c.7-1.3,0-2.9-1.5-3.5-1.1-.5-3.4-.3-3.9.1,0,.8.6,2.8,1.6,3.7,1.2,1.1,3.1,1,3.8-.3Z"/>
            <path class="st38" d="M167.4,22.9c.3-.7,0-1.5-.6-1.8s-1.5,0-1.8.6c-.3.7,0,1.5.6,1.8.7.3,1.5,0,1.8-.6Z"/>
          </g>
        </g>
        <g>
          <rect class="st25" x="175.6" y="75.7" width=".1" height="0"/>
          <g>
            <polygon class="st20" points="109.4 114.4 102.1 114.4 101.4 123.5 110 123.5 109.4 114.4"/>
            <path class="st17" d="M109.4,114.4h-1.9c0,.1,0,.2,0,.4-1.1,5.1-3.8,8.7-6,8.1,0,0,0,0,0,0v.6s8.6,0,8.6,0l-.6-9.1Z"/>
            <path class="st41" d="M103.7,118c0-1.3-.3-2.3-.7-2.3s-.7,1-.7,2.3.3,2.3.7,2.3.7-1,.7-2.3Z"/>
            <path class="st43" d="M116.1,129.9c0-3-5-7.7-10.8-7.5-5.9.2-10.5,5.1-10.5,8.2s4.8,5.3,10.7,5.1c5.9-.2,10.7-2.8,10.7-5.8Z"/>
            <path class="st48" d="M96.3,128.4c1.3.1,2.8.2,4.4.1,6.1-.2,11.1-1.8,11.1-3.5,0-.9-3.8-2.2-6.8-2-4.3.3-7.7,3.1-8.6,5.4Z"/>
            <polygon class="st46" points="116.6 128.8 94.3 130.5 93.4 176.8 117.7 176.8 116.6 128.8"/>
            <path class="st27" d="M116.6,128.8l-6.4.5c.3,3.9.3,8.2,0,12.7-1.5,18-8.4,31.9-15.4,31.2-.5,0-.9-.2-1.3-.3v3.9c0,0,24.2,0,24.2,0l-1-48Z"/>
            <path class="st34" d="M116.2,133.8c-2.1,3.6-3.6,13.4-3.6,25s.4,11.6,1.1,16.1h3.4l-.9-41.1Z"/>
            <path class="st40" d="M118.6,177.6c0-.9-.6-1.5-1.4-1.5h-23.3c-.8,0-1.4.7-1.4,1.5h26.2Z"/>
            <g>
              <ellipse class="st33" cx="105" cy="147.1" rx="7.6" ry="8.6"/>
              <ellipse class="st11" cx="105" cy="147.1" rx="6.5" ry="7.3"/>
              <polygon class="st33" points="111.1 143.7 110.6 142.9 99.6 151.4 100 152.1 111.1 143.7"/>
              <path class="st33" d="M107.4,145.4s-.3.2-.6.4c-.2,0-.4-.1-.6-.1-.1-.2-.3-.3-.3-.4,1-1.6,1.9-3.7,1.8-4.2,0-.1-1.7,1.7-2.1,3.2-.2.6-.4,1.5-.4,1.9,0,0,0,0-.1,0,0,0,0,0,0,0-1.2-1.4-4.2-3.5-4.4-3.4-.1.1-.2.9.2,1.8.5,1.1,2.5,1.4,3.9,1.8-.1.2-.3.3-.3.4,0,0,0,.4.2.5-.3,0-1.3.8-1.6,2.3-.3,1.5.4,2.9.8,3.3,0,0,.8-.8.9-1.3,0-.3.1-1.7,0-2.8.2.9.7,1.9,1.4,2.7v-.2c-.7-.8-1.2-1.8-1.4-2.8,0-.5,0-.9,0-1,0,0,0,0,0,0,0,0,.1,0,.2,0,0,1.1.6,2.5,1.4,3.4v-.2c-.8-.9-1.3-2.3-1.4-3.3,0,0,.2,0,.3-.1,0,1,.5,2.2,1.2,3h0c-.7-.9-1.2-2.1-1.2-3,0,0,.2-.1.3-.2.7.6,1.3,2.2,1.3,3.6h.1c0-1.4-.6-3-1.3-3.7,0,0,.2-.2.2-.3.7.7,1.3,2.2,1.4,3.5h.1c0-1.3-.7-2.8-1.5-3.5.2.1.4.1.5,0,.6.7,1,1.8,1.2,3h.1c-.2-1.1-.7-2.3-1.3-3.1,0,0,0,0,0,0,.1.2.3.3.3.3,0,0,.6-.6.5-.9.2,0,.5,0,.5-.1,0,0,0-.4-.1-.4ZM105.3,146.2c.1-.2.2-.3.3-.5,0,0,.1,0,.2.1,0,0,0,0,0,.1-.2,0-.4.1-.4.4h0s0,0-.1,0Z"/>
            </g>
            <path class="st25" d="M117.7,176.1c-.3.3-.6.5-1,.5h-23.3c-.2,0-.4,0-.6-.1-.2.3-.4.6-.4,1.1h26.2c0-.6-.4-1.2-.9-1.4Z"/>
            <polygon class="st27" points="111.6 129.2 94.3 130.9 94.3 132.5 111.6 130.8 111.6 129.2"/>
            <path class="st40" d="M117.4,128.5c0-.2,0-.4-.2-.5-.1-.1-.3-.2-.4-.2l-22.5,2c-.4,0-.7.4-.7.8s0,.4.2.5c.1.1.3.2.5.2l22.4-2c.4,0,.7-.4.7-.9Z"/>
            <path class="st25" d="M117.2,128.1c-.1-.1-.2-.2-.4-.2,0,.4-.3.8-.7.8l-22.4,2s0,0-.1,0c0,0,0,0,0,0,0,.2,0,.4.2.5.1.1.3.2.5.2l22.4-2c.4,0,.7-.4.7-.9s0-.4-.2-.5Z"/>
            <path class="st48" d="M112,127.5c.6-.1,1.2-.4,1.7-.6-.1-.3-.3-.6-.5-.9-.3-.3-.6-.5-.9-.6-.4.9-1.4,1.7-2.7,2.2,0,0,0,0,0,0,.7.1,1.5.1,2.4,0Z"/>
            <path class="st24" d="M103.6,117.7c0-.9-.2-1.6-.5-1.6s-.5.7-.5,1.6.2,1.6.5,1.6.5-.7.5-1.6Z"/>
            <path class="st17" d="M103.2,118.2c0-.4-.1-.8-.2-.8s-.2.3-.2.8.1.8.2.8.2-.3.2-.8Z"/>
            <rect class="st11" x="104.2" y="168" width="8.1" height="5.4"/>
            <rect class="st11" x="104.1" y="166.2" width="8.1" height=".9"/>
            <rect class="st11" x="104.1" y="164.2" width="8.1" height=".9"/>
            <path class="st10" d="M94.7,161.9c3.5-1.1,6.2-11.6,6.2-24.3s0-3-.1-4.5l-5.6.5-.5,28.3Z"/>
          </g>
        </g>
        <g>
          <polygon class="st36" points="69.6 82.3 68.4 83 82.4 177.6 83.6 176.9 69.6 82.3"/>
          <path class="st13" d="M50.9,93.6c1.3,11.1,10.3,18.9,20.1,17.5,9.8-1.4,16.8-11.6,15.6-22.6s-10.3-18.9-20.1-17.5c-9.8,1.4-16.8,11.6-15.6,22.6Z"/>
          <path class="st1" d="M54.4,93.1c1,8.9,8.2,15.2,16.1,14,7.9-1.1,13.5-9.3,12.5-18.1-1-8.9-8.2-15.2-16.1-14-7.9,1.1-13.5,9.3-12.5,18.1Z"/>
          <polygon class="st36" points="210.6 78.7 209.4 78.7 201.1 177.6 202.3 177.6 210.6 78.7"/>
          <path class="st2" d="M125.1,165.2l-.8,3.2c4.7,3.7,18.2,9.1,18.2,9.1h12.3s-24.1-8.7-29.7-12.4Z"/>
          <rect class="st36" x="123.6" y="50.6" width="1.2" height="126.9"/>
          <rect class="st42" x="102.2" y="25.2" width="45.6" height="51.1" rx="3.9" ry="3.9"/>
          <path class="st0" d="M126.3,53.8c-8.8-1.9-17-4.6-24.1-7.8v25.6c0,2.6,1.9,4.7,4.2,4.7h37.2c2.3,0,4.2-2.1,4.2-4.7v-15.1c-6.7-.2-14-1-21.5-2.6Z"/>
          <polygon class="st36" points="53.7 130.3 60.2 177.6 58.9 177.6 52.5 130.3 53.7 130.3"/>
          <path class="st35" d="M155.9,174.3c-2.6-.2-11.4,3.3-11.4,3.3h20.2l-8.7-3.3Z"/>
          <path class="st14" d="M57.3,174.9c-2.2-.2-11,2.7-11,2.7h17l-6-2.7Z"/>
          <path class="st2" d="M63.3,170.5h5.4c-3,1.1-5.5,7-5.5,7h-4.6c1.1-4,4.6-7,4.6-7Z"/>
          <path class="st14" d="M70.7,170.5h-6c3.3,1.1,6.1,7,6.1,7h2.2l1.9-1.4c-1.2-4-4.2-5.6-4.2-5.6Z"/>
          <path class="st35" d="M54.6,147.2l.6,3.4c12.4,2,21,15.2,16.1,27h6.9c2.4-7.4.8-28.6-23.6-30.4Z"/>
          <path class="st28" d="M77.9,177.6c0-.1,0-.3,0-.4-1.2-5.5-3.6-10.1-6.3-13.2,1.6,4.3,1.7,9-.2,13.6h6.6Z"/>
          <path class="st14" d="M71.2,153.4c-3.7-3.3-9.1-5.7-16.6-6.2l.6,3.4c3.7.6,7.1,2.2,9.9,4.5,1.9-1.1,4-1.7,6.2-1.7Z"/>
          <path class="st42" d="M193.7,92.1c-.4.7-.5,1.6-.2,2.4.3.8.9,1.3,1.7,1.5l28.3,6c.8.2,1.6-.1,2.1-.8.5-.6.7-1.6.5-2.4l-9.6-38.7c-.2-1-1-1.7-1.8-1.8-.9-.2-1.8.3-2.2,1.1l-18.7,32.7Z"/>
          <path class="st0" d="M222.1,82.9c-3.2,3.5-7.3,6.6-12.2,8.8-5.6,2.6-11.2,3.6-16.2,3.2.3.5.8.9,1.4,1l28.3,6c.8.2,1.6-.1,2.1-.8.5-.6.7-1.6.5-2.4l-3.9-15.9Z"/>
          <polygon class="st35" points="124.3 168.5 233.5 155.9 234.3 149 124.3 164.2 124.3 168.5"/>
          <path class="st14" d="M124.3,165.9v2.6l109.2-12.6.3-2.6c-40.2,6.6-66.4,9.1-109.5,12.6Z"/>
          <g>
            <path class="st14" d="M134.5,162.8l-10.2,1.4v4.3l21.8-2.5c-4.2-1-8.1-2-11.6-3.2Z"/>
            <path class="st14" d="M215.9,151.5c3.8,1.8,6.6,3.6,8.3,5.5l9.3-1.1.8-6.9-18.4,2.5Z"/>
          </g>
          <polygon class="st36" points="234.4 130.3 230.4 177.6 231.7 177.6 235.6 130.3 234.4 130.3"/>
          <g>
            <polygon class="st44" points="166 62.7 154.4 63.1 153.1 80.7 169.3 79.1 166 62.7"/>
            <path class="st45" d="M168.1,73c-2.1,7.8-8.7.9-11.7-6.3-.5-1.2-.9-2.5-1.3-3.7h-.7s-1.9,17.9-1.9,17.9l16.8-1.8-1.2-6.1Z"/>
            <path class="st4" d="M140.9,89.6l41.4-2c-4-12.2-31.6-17.1-41.4,2Z"/>
            <path class="st44" d="M176.3,80.6c.1.3.2.6.2.9,0,2.9-6.8,5.2-15.2,5.2s-13.5-1.8-14.9-4.2c-2.2,1.9-4.1,4.2-5.6,7.2l41.4-2c-.9-2.8-3.1-5.2-5.9-7Z"/>
            <polygon class="st30" points="183 87 140 89.1 140 176.4 183 176.4 183 87"/>
            <path class="st32" d="M151.6,89l-5,.2c.8,27.9,4.7,60.5,12.5,87.1h23.9s0-.2,0-.2c-16.6-8.7-31.3-51-31.4-87.2Z"/>
            <path class="st16" d="M147.5,161.4c-1.4-11.3-3.8-21.1-6.3-26.9v38.5h7.3c-.2-3.6-.5-7.6-1-11.6Z"/>
            <path class="st40" d="M184,86.9c0-.3-.1-.7-.3-.9-.2-.2-.5-.4-.8-.3l-43.4,2.6c-.5,0-1,.5-1,1.1v.3c0,.3.1.6.3.9.2.2.5.3.8.3l43.2-2.6c.6,0,1.1-.6,1.1-1.3Z"/>
            <path class="st37" d="M166.6,68.7c-.3-2.1-1.1-3.6-1.9-3.5-.8.1-1.2,1.9-1,4,.3,2.1,1.1,3.6,1.9,3.5.8-.1,1.2-1.9,1-4Z"/>
            <path class="st12" d="M165.5,68.8c-.2-1.5-.7-2.6-1.3-2.5-.5,0-.8,1.3-.6,2.8.2,1.5.7,2.6,1.3,2.5.5,0,.8-1.3.6-2.8Z"/>
            <path class="st44" d="M164.7,68.8c0-.4-.2-.8-.4-.7-.1,0-.2.4-.2.8,0,.4.2.8.4.7.1,0,.2-.4.2-.8Z"/>
            <path class="st25" d="M182.9,86.8l-43.2,2.6c-.3,0-.6-.1-.8-.3,0,0-.1-.2-.2-.3,0,.2-.1.4-.1.6v.3c0,.3.1.6.3.9.2.2.5.3.8.3l43.2-2.6c.6,0,1.1-.6,1.1-1.3s0-.5-.2-.7c-.2.4-.5.6-1,.6Z"/>
            <path class="st40" d="M185,177.6c0-1.5-1.1-2.8-2.5-2.8h-42c-1.4,0-2.5,1.2-2.5,2.8h47Z"/>
            <path class="st25" d="M184.3,175.6c-.5.5-1.1.8-1.8.8h-42c-.7,0-1.3-.3-1.8-.8-.5.5-.7,1.2-.7,2h47c0-.8-.3-1.5-.7-2Z"/>
            <path class="st26" d="M173.8,80.8c.1-1.1-2.6-2.4-6.1-2.9-3.5-.5-6.4,0-6.5,1.2s2.6,2.4,6.1,2.9c3.5.5,6.4,0,6.5-1.2Z"/>
            <path class="st26" d="M159.8,78.6c0-.6-1.4-.8-2.9-.6-1.5.2-2.7.9-2.6,1.4,0,.6,1.4.8,2.9.6,1.5-.2,2.7-.9,2.6-1.4Z"/>
            <g>
              <ellipse class="st33" cx="161.6" cy="131.6" rx="16.8" ry="18.9"/>
              <ellipse class="st11" cx="161.6" cy="131.6" rx="14.3" ry="16.1"/>
              <polygon class="st33" points="174.9 124.2 173.8 122.5 149.6 141 150.6 142.7 174.9 124.2"/>
              <path class="st33" d="M166.7,127.9c0,0-.8.5-1.3.9-.3-.1-.8-.2-1.3-.3-.3-.4-.6-.8-.8-1,2.2-3.6,4.2-8.1,4-9.2,0-.3-3.8,3.7-4.7,7-.4,1.4-.8,3.3-1,4.1-.1,0-.2,0-.3,0,0,0,0,0-.1,0-2.6-3-9.2-7.8-9.6-7.5-.3.2-.5,2,.3,4,1.1,2.4,5.4,3.2,8.5,4-.3.3-.6.7-.6.9,0,.2.2.8.4,1.2-.6,0-2.9,1.8-3.5,4.9-.6,3.3.9,6.4,1.7,7.3,0,0,1.7-1.8,2-2.9.2-.6.2-3.8.2-6.2.5,2,1.6,4.2,3.1,5.9v-.3c-1.5-1.7-2.6-4-3.1-6,0-1-.1-1.9-.2-2.3,0,0,0,0,0,0,0,0,.2,0,.4,0,.1,2.4,1.4,5.5,3.1,7.5v-.3c-1.7-2-2.9-4.9-3-7.2.2,0,.4-.2.6-.3,0,2.1,1.1,4.8,2.6,6.5v-.3c-1.4-1.6-2.4-4.2-2.5-6.2.2-.1.4-.3.6-.5,1.6,1.4,2.8,4.8,2.7,8l.2.2c0-3.2-1.3-6.8-2.9-8.2.2-.2.3-.4.4-.7,1.6,1.5,2.9,4.8,3,7.7h.2c-.2-2.8-1.5-6.2-3.2-7.7.4.2.9.3,1.2.2,1.3,1.6,2.2,4,2.7,6.6h.3c-.4-2.5-1.5-5-2.8-6.7,0,0,0,0,0,0,.3.3.6.6.6.6,0,0,1.4-1.4,1.1-2,.5,0,1-.2,1.1-.2,0-.1,0-.9-.2-1ZM162.1,129.6c.3-.4.5-.7.8-1.2.1,0,.3.2.5.3,0,0,0,.2,0,.3-.4,0-.8.3-.8.8h0c0,0-.2-.1-.3-.2Z"/>
            </g>
            <path class="st10" d="M181.3,90.4l-24.3,2.4c.4,42.3,17.2,72.8,24.3,71.9v-74.3Z"/>
          </g>
          <polygon class="st35" points="124.9 109.3 124.4 115 234.3 149 234.9 139.4 124.9 109.3"/>
          <g>
            <polygon class="st47" points="211.4 132.9 213.6 142.6 223.8 145.7 221.6 135.7 211.4 132.9"/>
            <polygon class="st47" points="192.1 127.7 194.1 136.6 204.4 139.7 202.3 130.5 192.1 127.7"/>
            <polygon class="st47" points="172.9 122.4 174.7 130.6 184.9 133.7 183 125.2 172.9 122.4"/>
            <polygon class="st47" points="153.6 117.1 155.2 124.6 165.5 127.7 163.8 119.9 153.6 117.1"/>
            <polygon class="st47" points="134.3 111.9 135.8 118.5 146.1 121.7 144.5 114.6 134.3 111.9"/>
          </g>
          <polygon class="st35" points="124.9 109.3 53.7 137.3 55.3 151 125.3 115 124.9 109.3"/>
          <g>
            <polygon class="st47" points="126.3 115.6 126.3 109.7 124.9 109.3 120.6 111 121.9 116.8 124.9 115.3 126.3 115.6"/>
            <polygon class="st47" points="114.4 120.6 113 114 104.2 117.5 105.9 125 114.4 120.6"/>
            <polygon class="st47" points="98.4 128.8 96.5 120.5 87.8 123.9 89.9 133.2 98.4 128.8"/>
            <polygon class="st47" points="66.4 145.3 63.7 133.4 55 136.9 57.8 149.6 66.4 145.3"/>
            <polygon class="st47" points="82.4 137 80.1 126.9 71.4 130.4 73.8 141.4 82.4 137"/>
          </g>
          <path class="st1" d="M198.9,90.7c-.3.6-.3,1.3-.1,1.9.2.6.7,1,1.2,1.2l20.3,4.7c.5.1,1.1-.1,1.5-.6.4-.5.5-1.2.4-1.9l-6.9-30.3c-.2-.8-.7-1.3-1.3-1.4-.6-.1-1.3.2-1.6.9l-13.4,25.6Z"/>
          <rect class="st1" x="105.7" y="29" width="38.4" height="43.5" rx="3.9" ry="3.9"/>
          <path class="st23" d="M134.1,44.9c-.1,0-1.3.8-2.1,1.4-.6-.2-1.4-.4-2.1-.5-.4-.6-.9-1.3-1.2-1.6,3.7-5.8,7.4-13.1,7-14.9-.1-.5-6.4,5.9-8,11.2-.7,2.3-1.5,5.4-1.8,6.7-.2,0-.3,0-.5,0,0,0-.1,0-.2,0-4.1-5.1-14.9-13.4-15.5-12.9-.5.4-1,3.3.4,6.6,1.7,4,8.8,5.5,13.9,7.1-.6.5-1,1.2-1.1,1.4,0,.4.2,1.4.6,2-1.1.1-4.9,2.8-5.9,8-1.1,5.4,1.2,10.7,2.5,12.1,0,0,2.9-2.9,3.4-4.7.3-1,.6-6.2.6-10.3.8,3.4,2.5,7.1,4.8,9.9v-.6c-2.3-2.9-4.1-6.8-4.8-10.2,0-1.7,0-3.1-.2-3.8,0,0,0,0,0,0,.1,0,.4,0,.7-.1.1,3.9,2,9.2,4.8,12.7v-.6c-2.6-3.4-4.6-8.4-4.6-12.2.3-.1.6-.3,1-.5,0,3.5,1.6,8,4,10.8l.2-.5c-2.4-2.8-4-7.1-4.1-10.5.3-.2.7-.5,1-.8,2.6,2.4,4.3,8,4.2,13.3l.4.3c.2-5.3-1.8-11.3-4.4-13.8.3-.3.6-.7.7-1.1,2.6,2.7,4.5,8.1,4.7,12.8l.4.2c-.1-4.9-2.3-10.5-5-13.2.6.4,1.4.6,2,.4,2.1,2.7,3.5,6.7,4.1,11.1l.4.3c-.6-4.4-2.2-8.7-4.4-11.5,0,0,0,0,0,0,.5.6,1,1,1,1,0,0,2.4-2.2,1.9-3.3.8-.1,1.7-.2,1.8-.4.2-.2-.1-1.5-.3-1.6ZM126.4,47.5c.4-.6.9-1.2,1.3-1.9.2.1.5.3.8.5,0,.1-.1.3-.2.5-.7,0-1.3.4-1.4,1.3,0,0,0,0,0,0-.2-.1-.3-.2-.5-.4Z"/>
          <path class="st14" d="M231.2,151.5c-12,4-49.1,7.5-51.4,7.3-2.3-.1,55.4-8.7,51.4-7.3Z"/>
          <path class="st8" d="M132.8,112.5c3.2,3.3,41.5,13.7,67.7,20.8,15.1,4.1,29.3,8,29.4,7.2.1-.7-7.3-3.5-28.9-9.1-24.1-6.2-68.4-19.3-68.4-19.3,0,0,0,.2.2.4Z"/>
          <path class="st8" d="M123.1,111.6c-2.1,3.3-27.8,13.3-45.3,20.2-10.1,4-19.6,7.7-19.7,7,0-.7,4.9-3.5,19.4-8.8,16.1-6,45.7-18.8,45.7-18.8,0,0,0,.2-.1.4Z"/>
          <polygon class="st0" points="146.3 58.9 146.3 62.4 103.6 50.3 103.7 47.4 146.3 58.9"/>
          <path class="st23" d="M219.4,94.9c-.3-1.1-.8-4.2-1.7-6.3,0-.2-.2-.4-.3-.6,0,0,0,0,0,0,0-.3,0-.7-.2-1.2-.3-1.2-.8-2.6-.9-2.7-.2,0-1,1-.8,2.3,0,0,0,0,0,0-.7-1.2-2.5-3-2.7-3,0,0,0,0-.1.2-.3.2-.6,2.1.9,3.2-.2.1-.3.3-.3.5-.2,0-.3-.1-.5-.2,0,0-.1-.2-.2-.2,0,0,0,0,0,0,0,0,0,0,0,0,0,0-.1-.1-.2-.2,0,0-.2-.1-.2-.2,0,0-.2-.1-.2-.2,0,0-.2-.1-.3-.2,0,0-.2,0-.3-.1-.1,0-.2,0-.3-.1,0,0-.2,0-.3-.1-.1,0-.3,0-.4-.1-.1,0-.2,0-.3,0-.1,0-.3,0-.4,0-.1,0-.2,0-.3,0-.2,0-.3,0-.5,0,0,0-.2,0-.3,0-.3,0-.5,0-.8.1-.2,0-.4.1-.6.2,0,0,0,0-.1,0-.2,0-.4.2-.5.3,0,0,0,0,0,0-.2.1-.3.3-.5.4s0,0-.1.1c-.2.2-.3.3-.4.5,0,0,0,0,0,0,0,0,0,0,0,0-.2.3-.4.6-.5.9-.3.6-.5,1.4-.5,2.3-.9-.6-1.6-1.6-1.3-3.4,0,0,0-.2,0-.3,0,0,0-.2,0-.2,0,0,0-.1,0-.2,0,0,0-.2.1-.2,0,0,0-.1.1-.2,0,0,0-.2.1-.2,0,0,0-.1.2-.2,0,0,.1-.1.2-.2,0,0,.1-.1.2-.2,0,0,.1-.1.2-.2,0,0,.1-.1.2-.2,0,0,.2-.1.2-.2,0,0,.1-.1.2-.2,0,0,.2-.1.2-.2,0,0,.1,0,.2-.1,0,0,.2-.1.3-.2,0,0,.2,0,.2-.1,0,0,.2-.1.3-.2,0,0,.2,0,.2-.1,0,0,.2,0,.3-.1,0,0,.2,0,.3-.1,0,0,.2,0,.3-.1,0,0,.2,0,.3-.1,0,0,.2,0,.3-.1,0,0,.2,0,.3-.1,0,0,.2,0,.2,0,0,0,.2,0,.3-.1,0,0,.2,0,.2,0,0,0,.2,0,.3,0,0,0,.1,0,.2,0,.2,0,.3-.1.5-.2.2,0,.5-.2.7-.3,0,0,.1,0,.2-.1.1,0,.3-.1.4-.2,0,0,.2-.1.2-.2.1,0,.2-.1.3-.2,0,0,.1-.1.2-.2,0,0,.2-.2.3-.2,0,0,.1-.1.2-.2,0,0,.2-.2.2-.2,0,0,.1-.1.2-.2,0,0,.1-.2.2-.3,0,0,.1-.1.1-.2,0,0,.1-.2.2-.3,0,0,0-.2.1-.2,0,0,0-.2.1-.3,0,0,0-.2,0-.2,0,0,0-.2,0-.3,0,0,0-.2,0-.2,0,0,0-.2,0-.2,0,0,0-.1,0-.2,0,0,0-.2,0-.2,0,0,0-.1,0-.2,0,0,0-.1,0-.2,0,0,0-.1,0-.2,0,0,0-.1,0-.2,0,0,0-.1,0-.2,0,0,0-.1-.1-.2,0,0,0-.1-.1-.2,0,0,0-.1-.1-.1,0,0,0,0-.1-.1,0,0,0,0,0,0,0,0,0,0,0,0,0,0-.2-.1-.3-.2,0,0,0,0,0,0,0,0,0,0,0,0,1.7,1.2-.3,4.9-2.6,5.5-2.8.8-7.5,1.3-8.6,5.9,0,0,0,0,0,.1,0,0,0,0,0,0,0,0,0,0,0,.1,0,.1,0,.3,0,.4,0,0,0,.1,0,.2,0,.1,0,.3,0,.4,0,0,0,0,0,.1,0,.1,0,.2,0,.4,0,0,0,0,0,.1,0,.1,0,.2,0,.4,0,0,0,0,0,.1,0,.1,0,.2,0,.3,0,0,0,0,0,.1,0,.1,0,.2.1.3,0,0,0,0,0,.1,0,0,0,.2.1.3,0,0,0,0,0,.1,0,0,.1.2.2.3,0,0,0,0,0,.1,0,0,.1.2.2.2,0,0,0,0,.1.1,0,0,.1.1.2.2,0,0,0,0,.1.1,0,0,.1.1.2.2,0,0,.1,0,.2.1,0,0,.1,0,.2.1,0,0,.1,0,.2,0,0,0,.1,0,.2.1,0,0,.2,0,.2,0,0,0,0,0,.1,0,0,.2,0,.3.2.5h.3c0,0,2.3.6,2.3.6h.4c0,0,.1.1.1.1h.4c0,0,.3.2.3.2h.1s1,.3,1,.3h0l3.2.8s0-.6-.8-.8c0,0,0,0,0,0,0,0,.1-.1.2-.2.2,0,.3,0,.5,0,0,0,.2.2.2.3,0,.2,0,.6,0,.6,0,0,.1-.2.2-.3,0,0,.1.2.1.2,0,0,0-.3,0-.4,0,0,0,0,0,0,0,0,0,0,0,0,0,0,0,0,.1,0,0,0,.1.7.1.7,0,0,.2-.6.2-.8,0,.1.3.6.3.6,0,0,0-.4,0-.6.1.1.3.3.5.4.1.3.2.7.2.8,0,0,.2-.2.2-.4,0,0,0-.1,0-.2,0,0,.1,0,.2,0,0,.1,0,.6,0,.6,0,0,.2-.3.3-.5,0,0,0,0,.1,0,0,.1,0,.6,0,.6,0,0,.2-.4.2-.7,0,.1.2.6.2.5,0,0,.1-.5,0-.7-.1-.2-.4,0-.7-.1-.5-.4-1.1-1.3-.6-2.6.1,0,.3-.2.4-.3.5.2,1,.3,1.4.3,1,1.5,2.2,2.8,2.7,3.3h0c.1.5.6.9.9.2.2-.4-.2-.4-.5-.3ZM213.4,93c0,.2.1.5.2.7-.2,0-.4,0-.6,0-.1,0-.3-.1-.4-.2.3-.3.5-.5.8-.8,0,.1,0,.3,0,.4Z"/>
          <polygon class="st42" points="220.4 79.2 219.6 77.7 197.5 92.5 198.3 94.1 220.4 79.2"/>
          <path class="st47" d="M76.9,91.2s0,0,0,0l4.6-6.5c-1.5,1-3.7,3.7-4.7,6.5-.5,0-2,.1-2.2.2,0,0-.1,0-.2,0l2.6-9.7s0,0,.1,0c.1,0,.2-.2.1-.3,0-.1-.2-.2-.3-.2-.1,0-.2.2-.1.3,0,0,0,.1.1.1-1.3,2.3-2.4,6.3-2.6,9.7,0,0-.2.1-.3.2h-.3c-.1,0-.2,0-.3,0h0c-.3,0-.6,0-.9,0-.3,0-.6,0-1,0-.3,0-.7,0-1,0-.3,0-.6,0-.9,0-.3,0-.7,0-1,.1-.3,0-.6,0-.9,0,0,0,0,0,0,0h0c-.1,0-.2,0-.3,0h0c-.3,0-.6,0-.9.1-.4,0-.9.1-1.3.2-.4,0-.8.1-1.2.2-.3,0-.6.1-.9.2-.3,0-.7.1-1,.2-.2,0-.3,0-.5.1h0s0,0,0,0c0,0-.1,0-.2,0l-2.7-.9,1.3,1.3c0,0-.1,0-.2,0l-2.8-.5,1.5.9s0,0-.1,0c0,0,0,0,0,0-.1,0-.2,0-.3.1.2,0,.8.3,1.7.6,1.5,1.2,2.7,2.1,3.6,2.7l-.6,1.5h0c0,0-.2-.2-.2-.2,0,0-.4,3.2-.1,4.4l.5-.2s-.4-2-.2-3.9h0s.8-1.5.8-1.5c.8.6,1.4.9,1.8,1,0,1-.2,2.6,0,3.4l.5-.2s-.3-1.5-.2-3.2c.3,0,.9,0,1.6,0,.2,1.3.3,2.5.3,2.5l.4-.2c0-.6-.2-1.5-.4-2.3.2,0,.5,0,.7,0,0,.8,0,1.7.1,2.2l.4-.2s-.2-1-.3-2.1c.5,0,1.1-.2,1.6-.4.3,1,.6,1.8.6,1.8l.4-.2c-.1-.5-.4-1.1-.6-1.7.3-.1.7-.2,1-.4.3.6.6,1.2.9,1.6l.4-.2s-.5-.7-1.1-1.6c.5-.2,1-.5,1.5-.9.5,1,.8,2,.8,2l.4-.2c-.2-.5-.6-1.3-1-2,.7-.5,1.4-1.2,1.9-2,1.1,1.2,1.8,2.9,1.8,2.9l.4-.2c-.3-.8-1.5-2.3-2.1-2.9,0,0,.1-.1.2-.2l.8-.7c0,0,.2,0,.3,0h0c0,0,0,0,0,0,0,0,.3-.9.5-1.5.1,0,.3,0,.4,0,0,0,.2-.6.3-1.1l-.7.5c-.1-.2-.4-.4-.5-.4Z"/>
          <polygon class="st13" points="77.7 75.8 74.3 74.2 61.9 107.5 65.4 109.1 77.7 75.8"/>
        </g>
        <g>
          <path class="st7" d="M257.7,140c0-2.9-1.6-5.4-4.1-6.3l-14.8-5.5-14.8,5.5c-2.4.9-4.1,3.5-4.1,6.3v32.8c0,2.6,1.9,4.7,4.2,4.7h29.4c2.3,0,4.2-2.1,4.2-4.7v-32.8Z"/>
          <path class="st15" d="M244.5,145c-5.1.4-14.5-2.8-23.7-.9v27.2c0,2.9,1.8,5.2,4,5.2h28.1c2.2,0,4-2.3,4-5.2v-29.4c-4.1,1.4-9.1,2.9-12.3,3.1Z"/>
          <path class="st6" d="M244.4,141.4h-21.2c-.6,0-1.2.3-1.6.7s-.7,1.1-.7,1.7v27.4c0,2.2,1.7,3.9,3.7,3.9h18.5c2.8,0,5.1-2.4,5.1-5.4v-23.5c0-2.7-1.7-4.9-3.7-4.9Z"/>
          <path class="st5" d="M253.2,144.8v25.6c0,5,3.7,6.5,3.7-1.4v-25.6c0-6.5-3.7-2.5-3.7,1.4Z"/>
          <rect class="st1" x="222.1" y="151" width="32.7" height="18"/>
          <path class="st18" d="M239.1,135.1c5.4,0,10.3-.6,14-1.6l-14.3-5.3-14.1,5.2c3.8,1,8.8,1.6,14.4,1.6Z"/>
          <polygon class="st19" points="246.8 113.1 230.9 115.4 232.7 124.7 245.7 124.7 246.8 113.1"/>
          <path class="st22" d="M238.1,117.1c-2.8.1-5.3-.5-7.1-1.7h-.2s1.8,9.3,1.8,9.3h13l1.1-11.3c-1.7,2.1-4.9,3.5-8.7,3.7Z"/>
          <g>
            <path class="st3" d="M233.4,116.5c-.9-.3-1.7-.6-2.4-1.1h-.2s1.8,9.3,1.8,9.3h3.1c-1.1-1.9-2-4.8-2.4-8.2Z"/>
            <path class="st3" d="M244.6,115.2c-.3,4-1.3,7.4-2.5,9.5h3.6l1.1-11.3c-.6.7-1.3,1.3-2.2,1.9Z"/>
          </g>
          <rect class="st7" x="227.1" y="122.9" width="23.4" height="9.6" rx="3.5" ry="3.5"/>
          <rect class="st5" x="228.5" y="124.1" width="9" height="7.1" rx="3.5" ry="3.5"/>
          <path class="st5" d="M247.4,124.1h0c-.9,0-1.7.8-1.7,1.9v3.3c0,1,.8,1.9,1.7,1.9h0c.9,0,1.7-.8,1.7-1.9v-3.3c0-1-.8-1.9-1.7-1.9Z"/>
          <path class="st18" d="M249.9,124v4.8c0,1.7-1.2,3-2.7,3h-16.8c-1.5,0-2.7-1.3-2.7-3v-4.8c-.4.5-.6,1.2-.6,1.9v3.6c0,1.7,1.2,3.4,2.7,3.4h18c1.5,0,2.7-1.7,2.7-3.4v-3.6c0-.7-.2-1.4-.6-1.9Z"/>
          <path class="st9" d="M242.3,134c.9.8,1.5,1.7,1.6,2.7,0,.6,0,1.1-.3,1.6.8,0,1.6,0,2.5,0,3.8,0,7.1-.2,9.6-.6-.8-3.6-9.4-3.8-13.4-3.7Z"/>
          <path class="st9" d="M241.2,136.7c0-.9-.6-1.8-1.4-2.5-1.2,0-2.2.2-3.2.4,0,.4.1.7.1,1.1,0,.7-.2,1.5-.5,2.1,1.3.2,2.9.4,4.6.5.2-.5.3-1,.3-1.5Z"/>
          <path class="st9" d="M246.8,123.4h-13.4s0,0,0,0c0,2,5,3.6,11.2,3.6s3.1-.1,4.5-.3v-.7c0-1.5-1-2.6-2.3-2.6Z"/>
          <g>
            <path class="st29" d="M228.9,155.1c0-1.4,0-2.7.2-4.1h-7v18h9.2c-1.5-3.8-2.5-8.7-2.5-13.9Z"/>
            <path class="st29" d="M251,151c.1,1.3.2,2.7.2,4.1,0,5.3-.9,10.1-2.5,13.9h6.1v-18h-3.8Z"/>
          </g>
          <path class="st9" d="M255.9,138.7s-6.5,1.3-11.4,1.3c0,0,.8,15.6,11.4,25.1v-26.5Z"/>
          <path class="st22" d="M238,117.7c3.5-.1,6.5-1.3,8.6-2.9v-1.4c-1.5,2.1-4.8,3.5-8.5,3.7-2.8.1-5.3-.5-7.1-1.7h-.2s.2,1.1.2,1.1c1.9.9,4.3,1.4,6.9,1.3Z"/>
          <g>
            <path class="st39" d="M238.2,152.2c-3.8,0-6.9,3.5-6.9,7.7s3.1,7.7,6.9,7.7,6.9-3.5,6.9-7.7-3.1-7.7-6.9-7.7ZM238.2,166.5c-3.2,0-5.9-3-5.9-6.6s2.6-6.6,5.9-6.6,5.9,3,5.9,6.6-2.6,6.6-5.9,6.6Z"/>
            <path class="st39" d="M242.6,160.8s0,0,0,0l3.4-2.5c-.9.2-2.5,1.2-3.5,2.4-.3,0-1.1-.3-1.2-.3,0,0,0,0,0,0l2.8-4.5s0,0,0,0c0,0,.1,0,.1-.1s0-.1-.1-.1-.1,0-.1.1,0,0,0,0c-1,.9-2.2,2.8-2.8,4.5,0,0-.1,0-.2,0h-.2c0,0-.1-.1-.2-.1h0c-.2,0-.3-.1-.5-.2-.2,0-.3-.1-.5-.2-.2,0-.4-.1-.5-.2-.2,0-.3,0-.5-.1-.2,0-.4,0-.5-.1-.2,0-.3,0-.5-.1,0,0,0,0,0,0h0c0,0-.1,0-.2,0h0c-.2,0-.3,0-.5-.1-.2,0-.5,0-.7-.1-.2,0-.4,0-.6-.1-.2,0-.3,0-.5,0-.2,0-.4,0-.6,0,0,0-.2,0-.3,0h0s0,0,0,0c0,0,0,0,0,0l-1.2-1,.5.9s0,0-.1,0l-1.4-.8.6.7s0,0,0,0c0,0,0,0,0,0,0,0-.1,0-.2,0,0,0,.4.3.8.6.6.9,1.1,1.6,1.4,2.1l-.6.6h0s0-.1,0-.1c0,0-.7,1.6-.7,2.3h.3s.1-1.1.5-2h0s.6-.6.6-.6c.3.4.6.7.8.9-.2.5-.5,1.3-.5,1.8h.3s0-.9.4-1.7c.1,0,.4.2.8.4,0,.7-.2,1.3-.2,1.3h.2c0-.3.1-.8.2-1.3.1,0,.2,0,.4.1-.1.4-.3.9-.3,1.2h.2s0-.5.2-1.1c.3,0,.6.1.9.1,0,.6,0,1,0,1h.2c0-.3,0-.6,0-1,.2,0,.4,0,.6,0,0,.4.1.8.2,1h.2s-.2-.5-.3-1c.3,0,.6,0,.9-.2,0,.6.1,1.2.1,1.2h.2c0-.3,0-.8-.2-1.2.4-.1.9-.3,1.3-.6.4.8.5,1.8.5,1.8h.2c0-.5-.4-1.5-.6-1.9,0,0,0,0,.1,0l.5-.2c0,0,.1,0,.2,0h0s0,0,0,0c0,0,.3-.4.5-.7,0,0,.1,0,.2,0,0,0,.2-.3.3-.5h-.5s-.1-.1-.2-.2Z"/>
            <polygon class="st39" points="243.6 156.9 243.2 156.2 233.3 163.8 233.7 164.5 243.6 156.9"/>
          </g>
          <rect class="st5" x="223.2" y="167.3" width="6.2" height=".9"/>
          <rect class="st5" x="223.2" y="165.9" width="6.2" height=".9"/>
          <rect class="st5" x="223.2" y="164.5" width="6.2" height=".9"/>
          <rect class="st5" x="223.2" y="163" width="6.2" height=".9"/>
        </g>
      </g>
    </g>
  </g>
</svg>