<?xml version="1.0" encoding="UTF-8"?>
<svg xmlns="http://www.w3.org/2000/svg" version="1.1" viewBox="0 0 300 200">
  <!-- Generator: Adobe Illustrator 29.1.0, SVG Export Plug-In . SVG Version: 2.1.0 Build 142)  -->
  <defs>
    <style>
      .st0 {
        fill: #fcb752;
      }

      .st1, .st2 {
        fill: #574a4c;
      }

      .st3 {
        fill: #e62625;
      }

      .st4 {
        fill: #503c41;
      }

      .st5 {
        fill: #97af3b;
      }

      .st6 {
        fill: #ca3f7e;
      }

      .st7, .st8 {
        fill: #fff;
      }

      .st7, .st9 {
        mix-blend-mode: overlay;
      }

      .st10 {
        fill: #5890a0;
      }

      .st11 {
        fill: #feeab3;
      }

      .st12 {
        fill: #6e544e;
      }

      .st13 {
        fill: #dc538a;
      }

      .st8 {
        mix-blend-mode: color-dodge;
        opacity: .6;
      }

      .st14 {
        fill: #d32027;
      }

      .st15 {
        fill: #a7c54b;
      }

      .st16 {
        fill: #e9d59a;
      }

      .st17 {
        isolation: isolate;
      }

      .st18 {
        fill: #f288b7;
      }

      .st19 {
        fill: #7caab9;
      }

      .st20 {
        fill: #453438;
      }

      .st21 {
        fill: #f04848;
      }

      .st22 {
        fill: #f89942;
      }

      .st23 {
        fill: #ffd366;
      }

      .st24 {
        fill: #a2d0dc;
      }

      .st25 {
        fill: #fec865;
      }

      .st26 {
        fill: #efd68f;
      }

      .st27 {
        fill: #ffe6ae;
      }

      .st28 {
        fill: #f9d48a;
      }

      .st29 {
        fill: #f89748;
      }

      .st2 {
        opacity: .4;
      }

      .st30 {
        fill: #899a3a;
      }

      .st31 {
        fill: #5a3f3b;
      }

      .st32 {
        fill: #713953;
      }

      .st33 {
        fill: #c22673;
      }

      .st34 {
        fill: #e8b769;
      }

      .st35 {
        fill: #c7db5a;
      }

      .st36 {
        fill: #3d2b31;
      }
    </style>
  </defs>
  <g class="st17">
    <g id="Layer_1">
      <g>
        <g>
          <rect class="st31" x="24.2" y="169.3" width="1" height="4.1"/>
          <ellipse class="st16" cx="24.7" cy="167.3" rx="3.7" ry="4.2"/>
          <path class="st34" d="M25.5,168c-1.8,0-3.3-1.4-3.6-3.3-.5.7-.8,1.6-.8,2.6,0,2.3,1.7,4.2,3.7,4.2s3.7-1.9,3.7-4.2,0-.6,0-.9c-.7.9-1.7,1.5-2.9,1.5Z"/>
          <path class="st16" d="M21.7,167.5c0,1.9,1.3,3.4,3,3.4s3-1.5,3-3.4-1.3-3.4-3-3.4-3,1.5-3,3.4Z"/>
          <ellipse class="st12" cx="24.7" cy="167.3" rx="2.9" ry="3.3"/>
          <path class="st31" d="M24.7,164.1c-1.6,0-2.9,1.5-2.9,3.3s0,.3,0,.4c0-1.6,1.2-2.9,2.7-2.9s2.7,1.3,2.7,3-.3,1.7-.9,2.2c.8-.6,1.3-1.6,1.3-2.7,0-1.8-1.3-3.3-2.9-3.3Z"/>
          <path class="st31" d="M23.7,167.6c0,.6.4,1,.9,1s.9-.5.9-1-.4-1-.9-1-.9.5-.9,1Z"/>
          <ellipse class="st16" cx="24.7" cy="167.3" rx=".8" ry=".9"/>
          <polygon class="st16" points="23.6 167.8 23.6 166.8 22.3 167.3 23.6 167.8"/>
          <path class="st12" d="M26.8,172.2h-4.7c-2.2,0-3.9,1.8-3.9,3.9h12.5c0-2.2-1.8-3.9-3.9-3.9Z"/>
          <rect class="st20" x="102.5" y="152.8" width=".7" height="4.4"/>
          <path class="st25" d="M101.5,153.5c0,.8.6,1.5,1.4,1.5s1.4-.7,1.4-1.5-.6-1.5-1.4-1.5-1.4.7-1.4,1.5Z"/>
          <rect class="st29" x="101.7" y="156.2" width="2.3" height="2.4"/>
          <rect class="st20" x="97.2" y="152.8" width=".7" height="4.4"/>
          <polygon class="st29" points="93.6 152.5 90.1 152.5 90.1 158.2 96.2 158.2 93.6 152.5"/>
          <rect class="st29" x="95.1" y="156.2" width="5" height="2.4"/>
          <path class="st15" d="M31.8,175.5c0-3.3-14.6-3.3-14.6,0v23.8h14.6v-23.8Z"/>
          <path class="st30" d="M22.7,193.9v-20.9c-3,.2-5.5,1-5.5,2.4v23.8h14.6v-2.9c-4.1.3-9.1-.5-9.1-2.4Z"/>
          <path class="st5" d="M30.8,174.1v20.4c0,3.2-10.6,3.2-10.6,0v-21.2c-1.8.4-3,1.1-3,2.1v23.8h14.6v-23.8c0-.5-.4-1-1-1.3Z"/>
          <g>
            <path class="st35" d="M29.9,187.3v-12.2c-.6-.2-1.3-.3-2.1-.4v12.2l2.1.5Z"/>
            <path class="st35" d="M27.8,188.8v2.8c0,2.8,2.1,2.8,2.1,0v-2.4l-2.1-.5Z"/>
          </g>
          <g>
            <path class="st12" d="M87.5,195c-5.7,0-10.3-5.2-10.3-11.6v-52.6c0-5-3.6-9-8-9s-7.3,3.7-7.3,8.2v12.3h-2.6v-12.3c0-6.1,4.4-11.1,9.9-11.1s10.6,5.4,10.6,11.9v52.6c0,4.8,3.5,8.7,7.8,8.7v2.9Z"/>
            <path class="st31" d="M78.3,183.3v-53.4c0-5-4.1-9.1-9.2-9.1s-8.3,3.7-8.3,8.2v13.2h1.1v-12.3c0-4.5,3.3-8.2,7.3-8.2s8,4,8,9v52.6c0,6.4,4.6,11.6,10.3,11.6v-1.2c-4.8-.3-9.3-5-9.3-10.6Z"/>
          </g>
          <rect class="st31" x="48.8" y="131.8" width="2.2" height="8.5"/>
          <ellipse class="st16" cx="49.8" cy="127.6" rx="7.8" ry="8.7"/>
          <path class="st34" d="M51.4,129c-3.7,0-6.8-2.9-7.6-6.9-1.1,1.5-1.7,3.4-1.7,5.5,0,4.8,3.5,8.7,7.8,8.7s7.8-3.9,7.8-8.7,0-1.3-.2-1.9c-1.4,2-3.6,3.2-6,3.2Z"/>
          <path class="st11" d="M45.7,138.4h15.6c2.5,0,4.6,2.1,4.6,4.6v1.5h-24.8v-1.5c0-2.5,2.1-4.6,4.6-4.6Z"/>
          <path class="st26" d="M61.3,142.7h-12.6c-2.2,0-4-1.6-4.6-3.9-1.7.8-2.9,2.8-2.9,5v.7h24.8v-.7c0-1.2-.3-2.2-.9-3.1-.9,1.2-2.2,2-3.7,2Z"/>
          <path class="st34" d="M68,147.1c0-1.9-1.3-3.4-3-3.4h-24.1c-1.1,0-2,1-2,2.3v1.1h29.1Z"/>
          <path class="st21" d="M40.9,145.9h23.8c4,0,7.2,3.2,7.2,7.2v46.1h-36.8v-47.6c0-3.2,2.6-5.7,5.7-5.7Z"/>
          <path class="st14" d="M48.9,151.3c0-2.3,1.7-4.2,3.7-4.2h17.5c-.8-.8-1.9-1.2-3-1.2h-28.3c-2.1,0-3.7,1.9-3.7,4.2v49.2h13.8v-47.9Z"/>
          <path class="st3" d="M68.9,146.2v43.2c0,2.3-1.7,4.2-3.7,4.2h-17.4c-2.6,0-4.7-2.4-4.7-5.3v-42.4h-4.2c-2.1,0-3.7,1.9-3.7,4.2v49.2h36.8v-48.1c0-2.3-1.3-4.2-3-4.9Z"/>
          <path class="st25" d="M72.9,199.7c0-1-.7-1.8-1.6-1.8h-35.6c-.9,0-1.6.8-1.6,1.8h38.8Z"/>
          <rect class="st8" x="35.1" y="151.2" width="36.8" height="6.1"/>
          <path class="st7" d="M65.9,170.8v-18.5c0-6.1-7.4-6.6-7.4,0v18.5h7.4Z"/>
          <rect class="st7" x="58.5" y="174.6" width="7.4" height="8.5"/>
          <polygon class="st26" points="89 190.2 86.2 191.1 86.2 195.8 89 196.1 89 190.2"/>
          <rect class="st1" x="88.4" y="158.7" width="19.1" height="40.2"/>
          <polygon class="st20" points="105.5 158.5 105.5 195.4 94.5 195.4 94.5 158.5 88.1 158.5 87.5 198.7 107.7 198.7 107.1 158.5 105.5 158.5"/>
          <rect class="st20" x="92.6" y="158.9" width="14.1" height="1.8"/>
          <path class="st25" d="M87.9,157.7c-.5,0-.9.4-.9.9,0,.5.4.9.9.9h19.3c.5,0,.9-.4.9-.9s-.4-.9-.9-.9h-19.3Z"/>
          <path class="st25" d="M87.9,197.4c-.5,0-.9.4-.9.9,0,.5.4.9.9.9h19.3c.5,0,.9-.4.9-.9s-.4-.9-.9-.9h-19.3Z"/>
          <path class="st25" d="M95,152.1c0,1.6,1.2,2.9,2.6,2.9s2.6-1.3,2.6-2.9-1.2-2.9-2.6-2.9-2.6,1.3-2.6,2.9Z"/>
          <path class="st34" d="M46,138.4c-.6,0-1.1.1-1.6.3,1.5.5,3.6.8,5.9.8s5.2-.4,6.6-1.1h-10.9Z"/>
          <path class="st11" d="M65.4,144.5c0-.3.8-.5-8.9-.5s-8.9.2-8.9.5-.8.5,8.9.5,8.9-.2,8.9-.5Z"/>
          <path class="st16" d="M43.4,128c0,3.9,2.8,7,6.2,7s6.2-3.1,6.2-7c0-3.9-2.8-7-6.2-7s-6.2,3.1-6.2,7Z"/>
          <ellipse class="st12" cx="49.8" cy="127.6" rx="6.1" ry="6.8"/>
          <path class="st31" d="M49.8,120.8c-3.4,0-6.1,3.1-6.1,6.8s0,.5,0,.8c.1-3.4,2.6-6.1,5.6-6.1s5.6,2.8,5.6,6.3-.7,3.5-1.8,4.6c1.6-1.2,2.7-3.3,2.7-5.7,0-3.8-2.7-6.8-6.1-6.8Z"/>
          <path class="st31" d="M47.7,128.2c0,1.2.9,2.1,1.9,2.1s1.9-1,1.9-2.1-.9-2.1-1.9-2.1-1.9,1-1.9,2.1Z"/>
          <path class="st16" d="M48.2,127.6c0,1,.7,1.8,1.6,1.8s1.6-.8,1.6-1.8-.7-1.8-1.6-1.8-1.6.8-1.6,1.8Z"/>
          <path class="st29" d="M108.1,158.9h-19.3c-.5,0-.9-.4-.9-.9,0,0,0-.2,0-.3-.5,0-.9.4-.9.9,0,.5.4.9.9.9h19.3c.4,0,.7-.3.8-.6,0,0,0,0,0,0Z"/>
          <path class="st29" d="M89.2,198.3c-.5,0-.8-.4-.9-.8h-.4c-.5,0-.9.4-.9.9,0,.5.4.9.9.9h19.3c.5,0,.9-.4.9-.9s0,0,0,0h-18.9Z"/>
          <path class="st29" d="M37.3,199c-.6,0-1.2-.4-1.4-1.1h-.2c-.9,0-1.6.8-1.6,1.8h38.8c0-.3,0-.5-.1-.7h-35.4Z"/>
          <g>
            <rect class="st7" x="102" y="161.3" width="2.4" height="17.2"/>
            <path class="st7" d="M102,180.8v5.7c0,1.4.5,2.6,1.2,2.6s1.2-1.2,1.2-2.6v-5.7h-2.4Z"/>
          </g>
          <rect class="st2" x="88.7" y="168.7" width="2.4" height="26.5"/>
          <path class="st15" d="M17.4,174.8c2.6-2.3,14.1-2,14.1,1v23.4h.3v-23.8c0-3.1-12.6-3.3-14.4-.7Z"/>
          <path class="st25" d="M32.7,199.7c0-1-.3-1.8-.7-1.8h-15.1c-.4,0-.7.8-.7,1.8h16.5Z"/>
          <path class="st29" d="M17.6,199c-.3,0-.5-.4-.6-1.1h0c-.4,0-.7.8-.7,1.8h16.5c0-.3,0-.5,0-.7h-15Z"/>
          <path class="st20" d="M95.8,152.1c0,1.1.8,2.1,1.8,2.1s1.8-.9,1.8-2.1-.8-2.1-1.8-2.1-1.8.9-1.8,2.1Z"/>
          <path class="st7" d="M96,152.1c0,1,.7,1.8,1.6,1.8s1.6-.8,1.6-1.8-.7-1.8-1.6-1.8-1.6.8-1.6,1.8Z"/>
          <path class="st25" d="M97.1,152.1c0,.3.2.6.5.6s.5-.3.5-.6-.2-.6-.5-.6-.5.3-.5.6Z"/>
          <path class="st20" d="M102,153.5c0,.5.4.9.8.9s.8-.4.8-.9-.4-.9-.8-.9-.8.4-.8.9Z"/>
          <polygon class="st16" points="47.4 128.7 47.4 126.6 44.7 127.6 47.4 128.7"/>
        </g>
        <g>
          <path class="st0" d="M176.9,106.6c-.4,0-15-8.7-15.9-9-.9-.3-1.7-5.7-1.7-5.7,0,0-1.1,1.2-1.4,0-.3-1.1-.6-5.1-.6-5.1,0,0-4.6-5.9-6.5-12.1-1.9-6.2-1.1-19,.6-21.9,1.7-2.9,8.3-3.7,11.6-1.5,3.2,2.2,12,10.7,12.3,19.7l4.4,10.5c1.1,1.4,5.9,6.3,5.9,6.3l-8.7,18.6Z"/>
          <path class="st28" d="M190.6,93.3s5.5,2.4,7,2c2.4-.5,4.9-.4,8.7-.4,1.1,0,5,5.4,6.2,7.5-1.3.4-7.4,9.1-7.4,9.1,0,0-5.1-1.3-8.2-3.4-1-.7-4.8-1.8-7.7-2.2-3.3-.6,1.3-12.6,1.3-12.6Z"/>
          <path class="st27" d="M194.3,107.3l-21.2-1.5s0-16.2,10.6-21.2l12.5,10.6,4.4,1s-.7,10.9-6.4,11.2Z"/>
          <polygon class="st32" points="189.3 109.7 211.3 92.3 212.2 95 195.8 112.5 189.3 109.7"/>
          <g>
            <path class="st27" d="M197.3,96c3.8-2.8,5.7-4.2,7.5-3.7,1.9.5,5.7,5,6,6.5.3,1.6-4.3,3-5.1,3.3-.8.3-2.5-1.6-2.2-2.4s2.2-2.7,1.9-3.2c-.3-.4-.9-.8-.9-.8,0,0-5.4,3.4-7.2.2Z"/>
            <path class="st27" d="M206.1,101.6c-.6-1.6,1.4-3.4,2.1-2.9.7.5,5.4,2.7,5.3,3.9,0,1.3-1.3,3.3-2,3.1-.7-.2-4.9-2.8-5.4-4.1Z"/>
            <path class="st27" d="M203.4,104.7c-.6-1.6,1.4-3.4,2.1-2.9.7.5,5.4,2.7,5.3,3.9,0,1.3-1.3,3.3-2,3.1-.7-.2-4.9-2.8-5.4-4.1Z"/>
            <path class="st27" d="M201.1,108.1c-.5-1.5,1.3-3.5,1.9-3,.7.5,4.9,2.4,4.8,3.6,0,1.3-1.2,3.3-1.9,3.2-.7-.1-4.5-2.6-4.9-3.8Z"/>
          </g>
          <path class="st28" d="M188.7,94.8c-3.8-2.4-6.8-5.1-8.7-7.7-6.9,6.5-6.9,18.6-6.9,18.6l21.2,1.5c3.5-.1,5.1-4.5,5.9-7.7-3.4-.6-7.5-2.3-11.4-4.7Z"/>
          <polygon class="st23" points="173.9 103.5 189.5 149.8 204.9 193.9 202.9 194.3 180.7 157.2 178.1 153.1 155.9 127.8 161.8 105.4 173.9 103.5"/>
          <polygon class="st0" points="181.1 143.2 175.9 134.1 161.6 106.3 155.9 127.8 177.4 153.5 180.1 157.6 202.9 194.3 203.7 194.1 181.1 143.2"/>
          <path class="st23" d="M174.4,126.5l-4.2-22.8s-15.8-.9-26.8,9.7l5.5,14.7,3.7,4,3.1,23.3-12.5,37.6,1.1.4c6.1-11.9,21.1-30.6,21.9-33,.9-2.4,4.4-20,4.6-21.1.2-1.1-.3-9.4-.3-9.4l3.8-3.3Z"/>
          <path class="st0" d="M144,193.2l16-34.1-2-30.6,1.5-8.5,1.9-20.6s-10.1-2.9-10.1-2.9c-2.9,1.4-6.7,14-9.4,16.6l5.8,14.7,3.8,4,3.5,23.3-11.8,37.7.8.3Z"/>
          <polygon class="st0" points="171.4 131.9 167 128.1 171.3 128.5 174.4 126.5 171.4 131.9"/>
          <path class="st23" d="M144,114.9c-4.3-2.6-6.1-7.6-2.1-13.9,0,0-4.5-1.7-4.7-4.7-.2-3,4.8-14,4.8-14,0,0-4.6-14.2-2.3-20.3,2.3-6.1,10-16.8,14.2-16.8s21.6,18.8,22.6,23.7c1,4.9.1,10.8.1,10.8,0,0-1.3,5.8-1.7,6.3-.3.5,1.2,14.8-.7,18.4-1.8,3.6-30.3,10.4-30.3,10.4Z"/>
          <path class="st0" d="M143.8,116.6s8.4-3.7,16.3-6.1c.7-2.4,6.7-10.7,7.3-13.3,4.7-21.9-4.3-37.6-13.4-40.6-4.9-1.7-10.6.3-14.9,10.2-.3,6.9,1.5,16,1.5,16,0,0-5.1,11.2-4.9,14.2.2,3,4.6,4,4.6,4-4.3,6-.4,13.3,3.5,15.7Z"/>
          <path class="st22" d="M173.3,60.3c-3.8-6.4-10.1-12.6-13.2-12.9-1.3-.1-7.1-3.7-11.5.9-1.4,1.4,8.3,5.9,11.4,8.8,8.5,8,13.6,22.3,16.6,21.7,1.3-.2.5-12.2-3.3-18.6Z"/>
          <path class="st23" d="M149.1,48c.1,2.2,6.8,3.7,13,9.7,8.1,7.8,14.7,17.7,15.9,17,2.1-1.3,2.9-9.9,2.9-9.9,2.3,1.3,7.5-2.5,3.8-6.4-1.5-6.4,4.9-26.1,4.7-35.2,2.1-.7,1.5-2.7.9-3.3-6-6.3-26.6-5.6-28.8-3.6-2.1,2-4.2,22.6-4.2,22.6,0,0-3.6,1.5-2.5,4.1,0,0-5.9,2-5.7,5Z"/>
          <path class="st0" d="M190.5,22.4c-3.4.1-7.3-1.2-11.4-1.5-7.8-.6-14.7-.8-18.7-2.3-1.7,5.9-3.2,20.2-3.2,20.2,0,0-3.6,1.5-2.5,4.1,0,0-6.2,2.1-6,5.1.1,2.2,6.8,3.9,13,9.9,8.1,7.8,15,18.1,16.2,17.3,2.1-1.3,2.8-10.5,2.8-10.5.6.3,1.5.3,2.3,0-1.9-.4-3.2-1.5-3.2-2.8s2.3-3,5.1-3,0,0,.1,0c-.1-.2-.3-.4-.5-.6-1.5-6.4,4.9-26.1,4.7-35.2.6-.2.9-.4,1.1-.7Z"/>
          <path class="st19" d="M171.6,52.5s8.3,5.9,13.4,6.3c1.4-1.8,5.5-26.6,4.3-35.6l-12.8-1.2c-.8,2.5-4,23.7-4.9,30.5Z"/>
          <path class="st10" d="M172.9,50.4s6.3,4.4,10.8,5.4c1.2-9.5.4-24.2,0-32l-6.3-.6c-.7,2.2-3.6,21.1-4.4,27.2Z"/>
          <path class="st24" d="M186.1,51.4c1.5-7.8,3.2-20.9,2.4-26.8l-2.2-.3c.9,7.8.4,18.6-.1,27.1Z"/>
          <path class="st4" d="M172,52.3c.9-6.9,3.9-26.6,4.8-30,1.5.1,12.6,1.1,12.6,1.1l.5-.5-13.6-1.4v.3c-.9,2.5-4.1,23.5-5,30.6v.2s.1.1.1.1c3.4,2.4,9.7,6,13.8,6.3v-.7s-5-.4-13.3-6.1Z"/>
          <path class="st4" d="M182.3,49.5c-.8-5.9-4.7-10.4-8.8-10.2-.8,5.3-1.6,10.5-1.9,13.3,0,0,4.9,3.5,9.5,5.3,1.1-2.2,1.6-5.2,1.2-8.3Z"/>
          <path class="st23" d="M173.4,110.6c-.4,0-12.4-5.3-15.6-7.6-.8-.6-4.3-5.5-4.3-5.5,0,0-1.2,1.2-1.5,0-.3-1.2-.7-5.1-.7-5.1,0,0-4.9-6.1-6.9-12.3s-1.2-19.1.7-21.9c1.8-2.8,8.9-3.3,12.3-1,3.5,2.3,7.5,9.3,7.9,18.4l4.5,12.8c1.2,1.5,10.4,7.7,10.4,7.7l-6.9,14.5Z"/>
          <path class="st0" d="M170.3,88.2l-5-12.6c-.1-2.7-.6-5.3-1.2-7.6.7,4.3.7,8.5,0,12,4.2,3.1,3.5,6,3.3,8.5,5.4,2.4,4.7,5,3.2,8.1-1.3,2.9-2.2,5.8-6.9,3.2-5-2.8-7.5-8-5.5-10.8-4.2.6-9-5.3-11.6-14.6-1.6-5.7-2-11.6-1.4-16.4,0,0-.2.2-.2.3-1.8,2.8-2.6,15.6-.7,21.9s6.9,12.3,6.9,12.3c0,0,.3,4,.7,5.1.3,1.2,1.5,0,1.5,0,0,0,3.5,4.9,4.3,5.5,3.2,2.3,15.2,7.6,15.6,7.6l6.9-14.5s-8.8-6.5-10-8Z"/>
          <path class="st22" d="M158,102.6c-.8-.6-4.1-5.8-4.1-5.8,0,0-1.2,1.2-1.5,0-.3-1.2-1.2-4.7-1.2-4.7,0,0-4.7-6.3-6.7-12.5-1.9-6-2.1-5.8-.1.5s6.6,12.2,6.6,12.2c0,0,.3,4.4.7,5.5.3,1.2,1.8,0,1.8,0,0,0,3.5,4.5,4.3,5.1,3.2,2.3,15.2,7.6,15.6,7.6v-.3c-1-.4-12.3-5.5-15.4-7.7Z"/>
          <path class="st27" d="M192.2,115l-23.7-1.8s-1-16.3,9.6-23l14.6,10.8,4.8.7s.7,12.5-5.3,13.3Z"/>
          <path class="st27" d="M194.7,103.4c4.1-2.9,6.2-4.4,8.1-4,2,.4,5.9,4.9,6.1,6.4.3,1.6-4.6,3.1-5.5,3.5-.9.4-2.6-1.5-2.2-2.4.3-.9,2.4-2.8,2.1-3.2-.3-.4-.9-.8-.9-.8,0,0-5.9,3.6-7.7.5Z"/>
          <polygon class="st32" points="213.8 98 192.9 119.2 199.7 122.5 214.3 101.5 213.8 98"/>
          <g>
            <path class="st27" d="M204.6,107.9c-.2-1.7,2.3-3.1,2.9-2.4.6.6,4.9,3.7,4.5,4.9-.4,1.2-2.2,2.9-2.9,2.6-.7-.3-4.4-3.8-4.5-5.1Z"/>
            <path class="st27" d="M200.8,112.3c-.6-1.6,1.6-3.5,2.3-3,.7.5,6,3,5.9,4.3,0,1.3-2.3,3.3-3,3.1-.8-.2-4.7-3.1-5.1-4.3Z"/>
            <path class="st27" d="M198.1,116.3c-.5-1.5,1.5-3.5,2.2-3.1.7.4,5.4,2.7,5.4,3.9,0,1.3-1.9,3-2.6,2.8-.7-.1-4.5-2.4-4.9-3.6Z"/>
            <path class="st27" d="M190,99s5.4,2.8,7,2.4c2.5-.6,3.3.7,7.4.7,1.2,0,5.2,5.3,6.4,7.4-1.4.4-8.1,9.3-8.1,9.3,0,0-5.3-1.1-8.6-3.2-1-.6-5.1-1.6-8.1-2-3.5-.5,4.1-14.6,4.1-14.6Z"/>
          </g>
          <path class="st28" d="M170.9,99.3c-2.8,6.8-1.5,13.4-1.5,13.4l22.8,2.3c3.3-.5-17.5-13.1-21.3-15.7Z"/>
          <path class="st27" d="M202.6,198.4h6.4l11.4-7.4-11.4,2.8s-4.8-3.6-6.4-2.3c-1.6,1.3,0,6.9,0,6.9Z"/>
          <path class="st27" d="M140.9,192.9l3.4,5.5h11.7l-8.3-3.3s-.7-5.6-2.5-5.8c-1.8-.2-4.3,3.6-4.3,3.6Z"/>
          <path class="st23" d="M181.5,49.4c-.8-5.7-4.9-10-9.2-9.4-4.2.5-7,5.6-6.2,11.4.8,5.7,4.9,10,9.2,9.4,4.2-.5,7-5.6,6.2-11.4Z"/>
          <path class="st0" d="M181.1,52.2c-.8-5.2-5-9.5-9.5-9.4s-7.6,4.3-6.8,9.5c.8,5.2,5,9.5,9.5,9.4,4.5,0,7.6-4.3,6.8-9.5Z"/>
          <path class="st4" d="M180.2,49.3c-.7-4.7-4-8-7.4-7.6-3.5.5-5.7,4.7-5.1,9.3.7,4.7,4,8,7.4,7.6,3.5-.5,5.7-4.7,5.1-9.3Z"/>
          <path class="st36" d="M178.1,49.6c-.4-3-2.6-5.2-4.8-4.9-2.2.3-3.7,3-3.3,6.1s2.6,5.2,4.8,4.9c2.2-.3,3.7-3,3.3-6.1Z"/>
          <path class="st28" d="M176.2,49.7c-.2-1.3-1.1-2.3-2.1-2.2-1,.1-1.6,1.3-1.4,2.7.2,1.3,1.1,2.3,2.1,2.2,1-.1,1.6-1.3,1.4-2.7Z"/>
          <path class="st23" d="M174.6,22c1.8.3-.2,8.8-2.5,9.1-2.3.2-10.4-7.8-10.5-9.8-.1-1.9,10.7.3,13.1.7Z"/>
          <path class="st23" d="M165.6,41.8c-3.1,1.5-10.3,1.4-9.9-1.3.3-2.7,12.4.2,9.9,1.3Z"/>
          <path class="st23" d="M177.6,63c1.8,2.7.8,10.5-.5,9.9-1.3-.6-11.2-13-11.3-14.1,0-1.1,10.8,2.8,11.8,4.2Z"/>
          <path class="st23" d="M163.7,56c-3.8-1.3-13.5-6.2-13.2-8.3.3-2,3.5-3.3,5.5-2,2,1.3,9.5,10.9,7.7,10.3Z"/>
          <g>
            <path class="st32" d="M247.6,113l-3.3-7.4c-.9-2-3.2-2.9-5.2-2l-3.5,1.5-.8-1.9,3.5-1.5c3.1-1.3,6.6,0,8,3.1l3.3,7.4-1.9.9Z"/>
            <path class="st32" d="M234.4,110.6l2.7,6.2,1.9-.9-2.7-6.2c-.6.3-1.2.6-1.9.9Z"/>
            <path class="st32" d="M226.5,106.2c0,3.4,2.8,6.2,6.2,6.2s6.2-2.8,6.2-6.2-2.8-6.2-6.2-6.2-6.2,2.8-6.2,6.2Z"/>
            <polygon class="st32" points="250.2 106.8 222.5 118.3 225.3 124.2 253 112.2 250.2 106.8"/>
            <path class="st32" d="M255.1,195.1c0,2.5,2,4.4,4.4,4.4s4.4-2,4.4-4.4-2-4.4-4.4-4.4-4.4,2-4.4,4.4Z"/>
            <polygon class="st32" points="290.5 167.8 256.2 184.8 211.3 92.3 210.4 93.2 254.8 190.2 292.9 172.1 290.5 167.8"/>
            <path class="st13" d="M224.6,120.1l31.1,67.7,34.1-16.6-28-59.8c-1.6-3.5-5.7-5-9.3-3.5l-27.9,12.2Z"/>
            <path class="st6" d="M267.1,173.5c-3.5,1.5-7.6,0-9.3-3.5l-25.1-53.5-8.1,3.5,31.1,67.7,34.1-16.6-2.9-6.2-19.8,8.7Z"/>
            <path class="st33" d="M256.2,176c2.1,4.6,7.6,6.6,12.2,4.6l21.6-9.4-3.1-6.3-19.8,8.7c-3.5,1.5-7.6,0-9.3-3.5l-25.1-53.5-3.7,1.6,27.2,57.8Z"/>
            <g>
              <polygon class="st18" points="262 141.5 265.8 149.6 274.7 145 270.9 137.1 262 141.5"/>
              <path class="st18" d="M259.8,137l9-4.5-9.5-19.8c-.9-2-3.2-2.8-5.2-2l-2.1.9c-.9.4-1.7,1.2-2,2.1-.4,1-.3,2,.1,2.9l9.7,20.2Z"/>
            </g>
            <g class="st9">
              <polygon class="st27" points="265.1 118.3 231.2 134.4 235 142.7 268.9 126.6 265.1 118.3"/>
            </g>
            <path class="st27" d="M228.1,106.2c0,2.6,2.1,4.6,4.6,4.6s4.6-2.1,4.6-4.6-2.1-4.6-4.6-4.6-4.6,2.1-4.6,4.6Z"/>
            <circle class="st27" cx="259.5" cy="195.1" r="2.5"/>
            <path class="st32" d="M258.4,195.1c0,.6.5,1.1,1.1,1.1s1.1-.5,1.1-1.1-.5-1.1-1.1-1.1-1.1.5-1.1,1.1Z"/>
            <path class="st28" d="M232.4,103.4c2.5,0,4.6,2,4.6,4.6.2-.5.4-1.2.4-1.8,0-2.6-2.1-4.6-4.6-4.6s-4.6,2.1-4.6,4.6,0,0,0,0c.7-1.7,2.4-2.9,4.3-2.9Z"/>
            <path class="st32" d="M231.1,106.2c0,.9.8,1.7,1.7,1.7s1.7-.8,1.7-1.7-.8-1.7-1.7-1.7-1.7.8-1.7,1.7Z"/>
          </g>
        </g>
      </g>
    </g>
  </g>
</svg>