<?xml version="1.0" encoding="UTF-8"?>
<svg id="Layer_1" xmlns="http://www.w3.org/2000/svg" version="1.1" viewBox="0 0 300 200">
  <!-- Generator: Adobe Illustrator 29.1.0, SVG Export Plug-In . SVG Version: 2.1.0 Build 142)  -->
  <defs>
    <style>
      .st0 {
        fill: #574a4c;
      }

      .st1 {
        fill: #f06f70;
      }

      .st2 {
        fill: #d7534d;
      }

      .st3 {
        fill: #f47c38;
      }

      .st4 {
        fill: #645458;
      }

      .st5 {
        fill: #765f65;
      }

      .st6 {
        fill: #de3c66;
      }

      .st7 {
        fill: #f9a147;
      }

      .st8 {
        fill: #b4919c;
      }

      .st9 {
        fill: #4d4043;
      }

      .st10 {
        fill: #48393c;
      }

      .st11 {
        fill: #ef4972;
      }

      .st12 {
        fill: #674a51;
      }

      .st13 {
        fill: #ec4443;
      }

      .st14 {
        fill: #ef477d;
      }

      .st15 {
        fill: #bc959f;
      }

      .st16 {
        fill: #8ecec6;
      }

      .st17 {
        fill: #9a342f;
      }

      .st18 {
        fill: #abddd9;
      }

      .st19 {
        fill: #524347;
      }

      .st20 {
        fill: #805f66;
      }

      .st21 {
        fill: #fff2ac;
      }

      .st22 {
        fill: #b83a3a;
      }

      .st23 {
        fill: #9e737e;
      }

      .st24 {
        fill: #d1ebe9;
      }

      .st25 {
        fill: #403437;
      }

      .st26 {
        fill: #fdb956;
      }

      .st27 {
        fill: #4f3239;
      }

      .st28 {
        fill: #6d5b5f;
      }

      .st29 {
        fill: #ffd475;
      }
    </style>
  </defs>
  <g>
    <g>
      <polygon class="st10" points="65.1 182.9 58.4 173.7 60 173.7 65.4 182.1 65.1 182.9"/>
      <path class="st10" d="M64.6,201h-2s2.6-10.1,2.6-18.3l1-2s.1,14-1.6,20.2Z"/>
    </g>
    <g>
      <polygon class="st10" points="76.3 183.6 67.5 174.8 69.2 174.8 76.4 182.9 76.3 183.6"/>
      <path class="st10" d="M79.7,201h-2s.4-9.7-1.4-17.5l.6-1.9s3.2,13.4,2.8,19.4Z"/>
    </g>
    <g>
      <polygon class="st10" points="91 185.7 81.7 178 83.3 178 91.1 185.1 91 185.7"/>
      <path class="st10" d="M95.6,201h-2s-.2-8.5-2.6-15.4l.5-1.6s4.1,11.8,4.1,17Z"/>
    </g>
    <g>
      <polygon class="st10" points="104.7 187.1 95 181.4 96.6 181.5 104.7 186.7 104.7 187.1"/>
      <path class="st10" d="M110.5,200.9h-2s-.9-7.6-3.9-13.9v-1.7c.1,0,5.4,10.7,5.9,15.5Z"/>
    </g>
    <path class="st0" d="M113.5,177.5l-.4-.5c9.9-8.5,25-12.7,32.6-12.9v.6c-7.5.2-22.4,4.3-32.2,12.7Z"/>
    <path class="st0" d="M111.2,176.2l-.4-.5c9.8-9.2,26-18,37.5-20.4v.6c-11.3,2.4-27.3,11.1-37.1,20.2Z"/>
    <polygon class="st25" points="41.2 162.5 36.7 154.5 47.7 162.5 41.2 162.5"/>
    <polygon class="st25" points="37.5 165 28.3 155.5 44.6 163.8 37.5 165"/>
    <path class="st4" d="M35.6,162.2c11,15.4,18.7,24.1,21.5,26.1,2.8,2,29.1,12,49.4-2l5.8-1.8,2.4-6.6-17.3-5-61.8-10.6Z"/>
    <path class="st25" d="M37.3,163.3c10.6,14.5,17.9,22.6,20.6,24.4,2.7,1.9,27.5,11.5,46.9-1.8l6.5-1.5,1.7-6.6-12.4-4.5-63.3-10Z"/>
    <path class="st19" d="M97.1,189c-6.5-3.2-17.6-4.2-28.3-6.6-8.7-2-14.9-5.4-20.9-5.5,4.8,5.8,8,9.9,9.7,11,2.3,1.6,21.9,8.7,39.5,1.1Z"/>
    <path class="st4" d="M66.2,188.4c-3.4-.7-6.7-1.1-9.6-1.2.3.2.5.4.7.6,1.5,1.1,10.2,4.4,20.9,4.5-3.2-1.6-7.4-3-12.1-3.9Z"/>
    <path class="st10" d="M105.6,186.3c-1.7.1-5.6-2.1-5.6-2.1,0,0,6.3,1.2,7,1.5,0,0-1,.6-1.4.6Z"/>
    <path class="st10" d="M112.2,185.3c-8-2.9-17.4-4.1-18-3.3-.2.2,0,.9.2,1.3h-.5c-.4-.5-.8-2,0-2.5,2-1.2,17.1,3.6,18.4,4v.4Z"/>
    <path class="st4" d="M94.4,181.3c1.5-.1,8.3.3,18,3.8,0,0,4.6-5.3,4.6-6.3s-1.2-2.6-1.8-2.9c-.6-.3-9.3-2.6-10.5-2.7-4.5-.3-14.3,8.5-10.2,8.1Z"/>
    <path class="st5" d="M114.7,176.1c-.6-.3-8.6-2.5-9.8-2.5-1.7,0-4.1,1.1-6.2,2.6,2.3.9,5.5,1.8,9.1,2.3,3.2.5,6.2.6,8.6.5,0,0,0-.1,0-.2,0-.9-1.1-2.4-1.7-2.7Z"/>
    <polygon class="st10" points="83.9 186 89.9 179.4 88.3 179.4 83.5 185.4 83.9 186"/>
    <path class="st10" d="M91.9,175.8c-.9-.3-4.1,1.6-5,2.8-1,1.2-.5,3.1.4,3.4.9.3,3.3-1.3,4.2-2.4s1.3-3.5.4-3.8Z"/>
    <path class="st10" d="M84.4,175.7c-.8-.4-4.2,1.2-5.3,2.3-1.1,1.1-.8,3.1,0,3.4s3.4-.9,4.5-2c1.1-1.1,1.6-3.3.8-3.7Z"/>
    <path class="st10" d="M73.6,174.5c-.9-.4-4.6.9-5.8,1.8-1.2.9-1,2.8-.2,3.2.9.4,3.7-.7,4.9-1.6,1.2-.9,1.9-3,1.1-3.4Z"/>
    <path class="st10" d="M61.6,171.1c-.9-.4-4.6.9-5.8,1.8-1.2.9-1,2.8-.2,3.2.9.4,3.7-.7,4.9-1.6s1.9-3,1.1-3.4Z"/>
    <polygon class="st10" points="72.2 187.1 82 179.5 80.3 179.6 72.1 186.4 72.2 187.1"/>
    <polygon class="st10" points="58.8 186.1 70.3 178 68.4 178.1 58.8 185.4 58.8 186.1"/>
    <polygon class="st10" points="45.3 186.1 58.3 174.6 56.5 174.1 45.3 185.4 45.3 186.1"/>
    <path class="st28" d="M31.4,160.7c2.3,2,28.5,22.5,60.7,18.7l8.5-6.1c-23.6-7.6-43.7-11.1-69.2-12.6Z"/>
    <path class="st23" d="M91.9,178.1l7.3-5.2c-22.5-7.1-42-10.5-66.2-12.1,6.8,5.1,30.5,20.6,58.9,17.3Z"/>
    <path class="st10" d="M85.9,201h2s-3.5-8.3-4-15.1l-1.1-1.8s.9,11.7,3.1,17Z"/>
    <path class="st10" d="M66.6,201h2s.8-7.8,3.6-14l-.4-1.5s-4.9,10.8-5.2,15.5Z"/>
    <path class="st10" d="M52.3,201h2.4s.9-8.3,4.2-15l-.4-1.6s-5.7,11.5-6.1,16.6Z"/>
    <path class="st10" d="M38.8,201h2.4s.9-8.3,4.2-15l-.4-1.6s-5.7,11.5-6.1,16.6Z"/>
    <path class="st10" d="M107.9,178.6s-2.9.9-7.2-.4c0,0,.1-2.5,1-3.6l6.1,4Z"/>
    <path class="st10" d="M112.5,179s3,1.3,5.5,1.6c0,0,1.7-2.1,2.7-3.5l-8.1,1.9Z"/>
    <path class="st0" d="M147.6,155.1c-.2.5,0,1.1.5,1.3s1.1,0,1.3-.5,0-1.1-.5-1.3c-.5-.2-1.1,0-1.3.5Z"/>
    <path class="st0" d="M144.4,164.2c-.1.5.2,1.1.8,1.2.5.1,1.1-.2,1.2-.8s-.2-1.1-.8-1.2c-.5-.1-1.1.2-1.2.8Z"/>
    <path class="st8" d="M35.1,161.3c3,2.3,9.7,6.8,18.7,10.5.5,0,1,0,1.4.1,12.4.9,23.3-.4,28.6-3.1-15.9-4.2-30.9-6.4-48.8-7.5Z"/>
    <path class="st8" d="M86.8,169.7c-6,2.4-14.9,3.8-24.8,3.8-1.4,0-2.7,0-4.1,0,9.2,3.4,20.5,5.6,32.7,4.2l6.8-4.8c-3.6-1.1-7.1-2.2-10.6-3.1Z"/>
    <path class="st28" d="M76.3,177.8l-5.4-3.5,14.4-.3,6.4,3.8-.4,1.1h.4c0,.1.5-1.2.5-1.2l-6.7-4-.8-1.8,13,2.2.4.8.3-.2-.5-.9-13.5-2.3h0c0-.1-9.6-5-9.6-5-.5-.1-1-.2-1.5-.3l3.9,2-12.3.4-17.1-6.3-1.6,6.7-6.7-7.5c-.2,0-.4,0-.6,0l7.2,8h0s24.1,5,24.1,5l5.8,3.7v1.4s0,0,.2,0h.2s0-1.6,0-1.6ZM46.5,169l1.5-6.4,16.7,6.2,4.7,4.9-22.9-4.7ZM70.1,173.8l-4.8-5.1,12.7-.4,6.2,3.2.9,2.1-14.8.3h-.2Z"/>
    <path class="st11" d="M106.5,178.3s-2.1.7-5.1-.3c0,0,0-1.8.7-2.6l4.4,2.9Z"/>
    <path class="st11" d="M114.1,179.1s1.8.8,3.3,1c0,0,1-1.2,1.6-2.1l-4.9,1.2Z"/>
  </g>
  <g>
    <g>
      <polygon class="st17" points="218.8 174.2 227.8 162.1 225.5 162.6 218.4 173.3 218.8 174.2"/>
      <path class="st17" d="M220.7,199.7h3.5s-5.1-15.3-5.4-25.8l-1.5-2.1s.3,18.4,3.5,27.9Z"/>
      <polygon class="st17" points="200.8 175.2 211.3 163.3 208.9 163.8 200.6 174.4 200.8 175.2"/>
      <path class="st17" d="M198.9,199.7h3.2s-2.6-14.6-1.3-24.7l-1.1-2s-2.4,17.7-.8,26.8Z"/>
      <polygon class="st17" points="186.3 177.2 196.6 162.5 194.6 162.4 186.1 176.5 186.3 177.2"/>
      <path class="st17" d="M182.4,199.7h2.7s-.8-13.3,1.2-22.7l-.7-1.9s-3.6,16.4-3.1,24.6Z"/>
    </g>
    <path class="st26" d="M212.5,158.3c7.1,14.7,32.9,18.8,45.2,15.4,17.5-5,33.6-22.2,33.6-22.2,0,0-21.9-25.8-44.3-24.2-22.4,1.6-38.3,23.1-34.5,31.1Z"/>
    <path class="st7" d="M265.7,155.5c6.4.5,21-.8,25.5-4.1,0,0,0,0,0,0,0,0-16.1,17.2-33.6,22.2-12.3,3.5-38.1-.6-45.2-15.4-1.7-3.6-2.4-9.3,4.4-13.1,12.4-6.9,27.8,8.6,48.7,10.3Z"/>
    <path class="st29" d="M225.2,139c5.2-6.1,13.4-10.3,24.9-10.4,13,0,25.4,10.1,31.9,16.4-10.7,7-37.5,3.1-56.8-6.1Z"/>
    <path class="st3" d="M238.6,150.3c5.1,4.1,8,19.3-9.1,21.4,0,0-5.2-1.7-10.5-5.6l19.5-15.8Z"/>
    <path class="st26" d="M213,164.6c10.7,5.8,24.8,3.7,27.4-3.2s.2-15.5-18.6-17.4c-18.8-1.9-21.5,13.7-8.8,20.6Z"/>
    <path class="st7" d="M211.3,154.3c10.7,5.8,24.8,3.7,27.4-3.2,0-.2.1-.4.2-.5,2.8,3.3,3.1,7.6,1.8,11.2-2.5,6.9-17.3,9.1-28,3.3-6.9-3.7-8.9-10.4-6.7-15.1,1.3,1.6,3.1,3.2,5.4,4.4Z"/>
    <path class="st3" d="M219.2,156c3.1.6,7.2,8.1,1.4,11.8,0,0-5.1-.7-7.9-3.7l6.6-8.1Z"/>
    <path class="st26" d="M198,168c6.1,4.9,23.2,4.3,24.4-5.7,1.3-10.1-24.3-14.6-28.5-6.7-1.8,3.3-2,7.6,4.1,12.4Z"/>
    <path class="st29" d="M218.2,156.6c-2.4.4-5.4.5-8.6,0-4.7-.5-8.7-1.8-10.8-3.4,5-2.6,15.4-.9,19.5,3.3Z"/>
    <path class="st7" d="M209,161.1c4.9,0,9.4-.7,12.9-1.8.4.9.6,2,.5,3-1.3,10.1-18.3,10.6-24.4,5.7-4.7-3.8-5.7-7.2-5-10.1,3.7,1.9,9.6,3.1,16.1,3.1Z"/>
    <path class="st2" d="M178.7,157.6l.5-.2c-.6-20.6-10.4-48.7-29-59.9l-.3,2.6c18.2,10.9,28.2,37.2,28.8,57.5Z"/>
    <path class="st2" d="M194.8,155.2c4.2-18.2.7-47-16.3-62.1l-.2,3.3c16.7,14.7,20.1,40.8,16,58.6h.5Z"/>
    <path class="st3" d="M209,158.9c.2,2.8-4.9,9.7-10.2,9.7-.3-.2-.6-.4-.9-.6-2-1.6-3.3-3.1-4.1-4.5,3.1-1.6,15-6.1,15.1-4.6Z"/>
    <path class="st26" d="M182.5,173.1c6.3.3,28.1-9.1,26.6-14.7-1.5-5.6-43.1-7.1-47,.2-2.1,4,18.3,14.4,20.4,14.5Z"/>
    <path class="st7" d="M207,158.5c-.9-2.9-12.4-4.8-23.8-4.9,12.1-.2,25.1,1.7,25.9,4.7,1.2,4.4-12.5,11.4-21.3,13.8,8.6-2.8,20.5-9.4,19.2-13.7Z"/>
    <path class="st29" d="M194.7,154.9c-3,1.3-6.6,2.4-10.5,3.3-8.7,1.9-16.5,1.7-19.7-.2,2.7-4,18.7-4.5,30.2-3.1Z"/>
    <path class="st7" d="M185.3,163c13.1,0,23.7-2.1,23.7-4.8s0,0,0,0c0,0,0,.1,0,.2,1.5,5.6-20.3,15-26.6,14.7-2.1,0-21.1-9.8-20.5-14.1,1.8,2.3,11.6,4,23.4,4Z"/>
    <polygon class="st2" points="214.4 173.7 207.5 165.2 208.9 163.6 214.7 172.8 214.4 173.7"/>
    <path class="st2" d="M215.1,199.7h-2.8s2.8-15.8,2.1-26.2l1-2.4s1.4,18.5-.3,28.6Z"/>
    <polygon class="st2" points="231.7 171.4 219.2 162.2 221.3 162 231.8 170.4 231.7 171.4"/>
    <path class="st2" d="M240.5,199.7h-3.9s-.9-17.4-4.9-28.6l.7-2.6s7.4,19.9,8.1,31.2Z"/>
    <path class="st2" d="M233.2,156.7c.9-1.1,2.2-1.3,2.8-.5.6.7.6,1.9-.1,2.9-.7,1-2,1.5-2.8.9-.9-.6-.9-2.1,0-3.3Z"/>
    <path class="st2" d="M218.9,160.8c.9-1.1,2.1-1.3,2.7-.7.6.6.4,1.8-.3,2.8-.7,1-1.9,1.5-2.6,1-.8-.5-.7-2,.2-3.1Z"/>
    <path class="st2" d="M207.7,163.7c.9-1.1,2-1.4,2.5-.8.5.5.3,1.7-.4,2.7-.7,1-1.8,1.5-2.5,1.1-.7-.5-.5-1.9.4-3Z"/>
    <polygon class="st2" points="246.5 169.4 233.2 158.2 235.4 157.2 246.5 168.3 246.5 169.4"/>
    <path class="st2" d="M261,199.7h-4.6s-3.7-18.8-10-30.6l.4-2.7s11.6,21.1,14.1,33.3Z"/>
    <path class="st1" d="M256.4,199.7s-1.7-8.7-4.8-17.9c0-1.8.2-3.5.4-5.2,3.4,7.1,7.5,16.5,8.9,23.1h-4.6Z"/>
    <path class="st10" d="M184.9,158.8c-.5-1.3.9-2.9,3.3-3.7,2.8-1,6.2-.6,7.1,1.2.9,1.8-1.5,3.9-4.8,4.4-2.8.4-5.1-.4-5.6-1.8Z"/>
    <path class="st10" d="M178.3,158.9c.5-1.4-1-3.1-3.6-4-3.1-1.1-6.7-.7-7.6,1.1-1,1.9,1.6,4.1,5.2,4.7,3,.5,5.5-.4,6-1.8Z"/>
    <path class="st2" d="M179.5,182.1c11.6.2,19.1-4.5,19.5-8.4.3-3.9-5.7-8-5.7-8,0,0-7.3,1.3-8.1,3.9,0,0,5.6,1.6,5.2,5-.4,4.3-10.8,7.5-10.8,7.5Z"/>
    <path class="st22" d="M195.6,173.4c.3-2.8-2.4-5.7-4.1-7.2,1.1-.3,1.8-.4,1.8-.4,0,0,6.1,4,5.7,8-.3,3.9-7.9,8.6-19.5,8.4,0,0,.2,0,.5-.1,9.2-.8,15.2-5,15.6-8.6Z"/>
    <path class="st2" d="M174.1,182.1c-9.2-3.9-13.4-10.1-12.7-13.6.8-3.8,7-6.2,7-6.2,0,0,6.7,2.7,6.4,5.6,0,0-6.2.7-7,4-1,3.9,6.3,10.2,6.3,10.2Z"/>
    <path class="st22" d="M174.1,182.1c-.2,0-.5-.2-.7-.3-2-1.6-8.2-7-7.5-10.9.7-3.9,7.8-5.2,7.8-5.2,0,0,0-.1,0-.2.7.7,1.1,1.5,1.1,2.3,0,0-6.2.7-7,4-1,3.9,6.3,10.2,6.3,10.2Z"/>
    <path class="st13" d="M175.3,158.4c.3-.8-.6-1.9-2.2-2.4-1.8-.6-4-.4-4.6.7-.6,1.1,1,2.4,3.2,2.8,1.8.3,3.3-.2,3.6-1.1Z"/>
    <path class="st13" d="M186.4,158.7c-.2-.7.5-1.6,1.8-2.1,1.6-.5,3.4-.3,3.9.6.5,1-.8,2.1-2.6,2.4-1.5.2-2.8-.2-3.1-1Z"/>
    <path class="st7" d="M208.7,163c.5-.3,1-.3,1.2,0,.1.3,0,.8-.5,1.1-.4.3-1,.4-1.2.1-.2-.3,0-.8.6-1.2Z"/>
    <path class="st7" d="M219.9,160.3c.5-.3,1-.3,1.2,0,.1.3,0,.8-.5,1.1-.4.3-1,.4-1.2.1-.2-.3,0-.8.6-1.2Z"/>
    <path class="st7" d="M234.1,156.5c.5-.3,1-.3,1.2,0,.1.3,0,.8-.5,1.1-.4.3-1,.4-1.2.1-.2-.3,0-.8.6-1.2Z"/>
    <path class="st29" d="M233.1,147.8c-2.2,1.8-6.4,3-11.3,3s-9.3-1.3-11.5-3.2c2.3-2.1,6.2-3.3,11.7-2.7,4.9.5,8.5,1.5,11.1,2.9Z"/>
    <path class="st2" d="M185.1,169.7c1,1.5.8,3.6-.6,4.7,0,0,4.8-.6,4.4-3.8-.4-3.2-3.8-.9-3.8-.9Z"/>
    <path class="st2" d="M180.5,168.4c1,1.5.8,3.6-.6,4.7,0,0,4.8-.6,4.4-3.8-.4-3.2-3.8-.9-3.8-.9Z"/>
    <path class="st22" d="M174.7,167.9c-1,1.5-.8,3.6.6,4.7,0,0-4.9-.6-4.4-3.8.4-3.2,3.8-.9,3.8-.9Z"/>
    <path class="st2" d="M179.2,168c-1.3,1.1-1.7,3.3-.7,4.7,0,0-4.5-1.9-3.3-4.8s3.9.2,3.9.2Z"/>
    <path class="st10" d="M185.2,162.1c1.1.7,3.2-.1,1.7-.6-1.5-.4-3-.3-1.7.6Z"/>
    <path class="st10" d="M178.3,161.5c-1,.7-3-.1-1.6-.6s2.8-.3,1.6.6Z"/>
    <path class="st21" d="M250.2,130.2c2,0,4,.4,6,.9-3.4,3.2-8,5.7-13.8,7.2-4.6,1.2-9.4.9-14-.2,4.8-4.9,12.1-8.2,21.9-8Z"/>
    <path class="st26" d="M272.2,159.6c2-.3,4-.4,6-.2-2.7,3.8-6.7,7.1-12.2,9.7-4.3,2-9.1,2.6-13.8,2.5,3.8-5.8,10.3-10.4,20-12Z"/>
    <path class="st21" d="M261.3,132.6c.6.2,1.2.6,1.7,1-1.4,1.1-2.9,1.7-4.4,1.7-1.1,0-2.1-.5-3.1-1.2,1.1-1.6,3.1-2.5,5.9-1.5Z"/>
    <path class="st21" d="M218.5,145.9c.8,0,1.7.2,2.7.5-1.6.8-3.2,1.1-4.7,1.1-.9,0-2.9-.3-3.6-.6.7-.5,2.8-1.2,5.6-1Z"/>
  </g>
  <g>
    <path class="st18" d="M129.2,7.2c-.2-1.6-19.1,6.1-26.6,21.6-4.1,8.6-14.1,30.8-14.1,30.8l1.2.6c16.8-15.4,40.3-46,39.5-53.1Z"/>
    <path class="st16" d="M124.1,18.6c2.9-4.8,4.6-8.6,4.4-10.6-.2-1.5-18.4,5.9-25.6,20.8-2.9,6-8.7,19-11.7,25.6,8.7-12.3,23.1-28,32.9-35.9Z"/>
    <path class="st24" d="M129,6.8c-2.5-.4-19.6,7.3-26.6,21.9-3.7,7.7-12.2,26.6-13.8,30.2.2,0,.3,0,.5.1,1.7-3.9,10.1-22.5,13.8-30.1,6.1-12.8,20.3-20.2,24.7-21.4.9-.3,1.3-.2,1.4-.2.7,7.1-22.2,36.8-38.8,52.2.1,0,.3.2.4.3,16.7-15.6,39.7-45.6,38.9-52.7,0,0,0-.3-.5-.4Z"/>
    <path class="st24" d="M122.7,14.9c-1.7-.3-13.8,5.4-19.9,16.7-3.5,6.6-12.5,24.6-14.5,28.4.2,0,.3,0,.5,0,2-4.1,10.9-21.8,14.4-28.3,5.3-10,15.6-15.5,18.6-16.4.6-.2.9-.2.9-.1.5,4.8-17.2,29-32.9,45.2.1,0,.2.2.3.3,15.8-16.3,33.5-40.7,32.9-45.5,0,0,0-.2-.3-.3Z"/>
    <path class="st9" d="M105.9,105.9l-1.2-1c0-13.7-4.5-29-12.9-39.7l.3-.3c8.6,10.8,13.8,27.3,13.7,41Z"/>
    <path class="st9" d="M100.6,107.8l-1-.9c2-12.1-1.3-30-9-41l.4-.3c7.8,11.3,11.7,29.8,9.5,42.2Z"/>
    <path class="st9" d="M96,110.8l-.8-1.1c3.7-14.1,1.3-34.5-6.7-44.3l.3-.4c8.2,10,11.1,31.7,7.2,45.9Z"/>
    <path class="st12" d="M87.6,59.9c-1.1-1.2-.5-2.8,1.9-2.5,2.4.3,3.5,1.7,2.8,3.2-.7,1.5-4.7-.7-4.7-.7Z"/>
    <path class="st18" d="M37.7,13.2c-1.8,1-4.1,9.8-.3,20,5.2,13.8,33.8,20.3,50.5,27.1l1.1-1.5c-10.5-16-48.9-47.1-51.3-45.7Z"/>
    <path class="st16" d="M63.8,42.2c9.4,4.9,17.7,10.2,24.2,15.3-11.7-16.4-48-45.6-50.3-44.2-1.6,1-3.8,8.4-1.1,17.7,8.1,2.4,17.5,6.3,27.1,11.3Z"/>
    <path class="st18" d="M51,27.2c5.7,3.2,11.7,7,17.2,11.1-10.2-10.9-28.9-24.3-29.7-23.8-.6.3-1.4,3-.4,6.6,3.4,1.2,7.8,3.2,13,6.1Z"/>
    <path class="st24" d="M87.5,60c-3.6-1.4-7.7-2.9-12-4.4-15.9-5.5-33.9-11.8-37.9-22.4-3.9-10.4-1.4-18.8.2-19.7h0c2.1-1.2,39.6,28.9,50.6,45.1.1-.1.3-.2.4-.3-4.7-6.9-15.3-17.7-28.4-28.9-8.3-7.1-21.2-17.3-22.9-16.3-2,1.2-4.2,10.1-.4,20.3,4.1,10.8,22.2,17.2,38.2,22.7,4.3,1.5,8.4,2.9,12,4.4,0-.2,0-.3.1-.5Z"/>
    <path class="st24" d="M87.6,60.1c-3.9-1.9-8.2-3.7-12.5-5.6-14.7-6.4-29.2-12.7-32.2-20.8-2.7-7.3-1-12.8,0-13.4h0c1.4-.7,32.4,22.4,45.5,38.4.1,0,.3-.2.4-.2-5.9-7.2-17.1-17.5-29-26.9-6.7-5.3-16-12.2-17.1-11.6-1.3.7-2.8,6.5-.2,13.7,3,8.3,17.7,14.6,32.5,21.1,4.4,1.9,8.6,3.8,12.6,5.7,0-.2,0-.3,0-.5Z"/>
    <path class="st18" d="M127.1,9.5c.2-2.9-15.4,6.9-20.2,13.8-1.9,2.8-5.3,9-6.6,12.7,6.8-8.7,26.7-24,26.8-26.6Z"/>
    <path class="st12" d="M55.2,125.7c-3.3-5.5-6.5-22.7,1.6-37.4,8.1-14.7,23.8-18.7,26.4-17.5,2.5,1.2-10.4,40-13.5,44.6-3.1,4.6-14.5,10.3-14.5,10.3Z"/>
    <path class="st27" d="M55.5,124.4c-3-4.9-5.9-21.7,1.8-35.9,7.8-14.4,22.4-17.7,24.8-16.5,2.3,1.2-9.9,38.1-12.7,42.5-2.9,4.3-13.9,10-13.9,10Z"/>
    <path class="st6" d="M56,123c-2.8-4.7-5.7-20,1.6-33.7,7.4-13.9,21.3-17.9,23.5-16.7,2.2,1.1-9.3,36.6-12,40.8-2.7,4.2-13.1,9.7-13.1,9.7Z"/>
    <path class="st14" d="M58.8,101.8c-1.2-1.8-2.3-7.9,1.5-15,5-9.5,16.7-13.5,18.6-13.3,2,.2-11.5,22.4-13.3,24.4-1.7,1.8-6.8,3.9-6.8,3.9Z"/>
    <path class="st14" d="M59.1,104.4c-1-.9-2.5-3.7-2.8-7.7-.9,1.4-1.6,3-2.1,4.6-1.4,5.2.2,9,1.2,9.9,0,0,3-2.3,3.9-3.8.3-.5.9-2.2,1.7-4.5-1.1.9-1.9,1.5-1.9,1.5Z"/>
    <path class="st27" d="M77.2,85.9c-3.3-.3-6-3.7-7-6.4-.9-2.4-.5-4.2,1-4.9l.2.5c-1.2.6-1.5,2.1-.7,4.3,1.1,3.1,4.7,6.9,8.3,5.9v.5c-.5.2-1.1.2-1.8.2Z"/>
    <path class="st27" d="M72.2,96.2c-4.2-.4-6.6-3.3-7.8-5.4-2.3-4-2.5-8.8-1.1-10.3l.4.3c-1.2,1.3-1,5.9,1.2,9.7,1.4,2.5,4.8,6.3,11.1,4.8v.5c-1.3.3-2.6.4-3.7.3Z"/>
    <path class="st27" d="M66.5,106.2c-3.4-.3-6.8-1.6-9.1-3.9-1.8-1.9-3.6-5.3-1.6-10.5l.5.2c-1.5,4-1,7.4,1.5,10,3.7,3.8,10.6,4.6,14.8,3.2l.2.5c-1.8.6-4,.8-6.2.6Z"/>
    <path class="st27" d="M62.3,115.3c-2.1-.2-4.1-.9-5.6-1.8-2.7-1.6-4.4-3.9-4.4-6h.5c0,1.9,1.6,4.1,4.1,5.6,3,1.8,7.8,2.8,12.1.3l.2.4c-2.3,1.3-4.8,1.7-7,1.5Z"/>
    <path class="st27" d="M55.5,123.7c-2.1-13.7,10.1-45.5,25.4-51.4l.2.5c-15.1,5.9-27.2,37.3-25.1,50.9h-.5Z"/>
    <path class="st12" d="M85.3,61.8c-1.7-.2-2.1-1.9.1-3.2,2.3-1.3,4.1-.8,4.4.8s-4.6,2.4-4.6,2.4Z"/>
    <path class="st20" d="M96.1,63.5c.4-1.8-4.9-5.4-7.2-5.5-2.4,0-8.4,5-9,6.4-.5,1.4,1.3,6.6,2.7,7.4,1.3.8,12.4-2.9,13.5-8.3Z"/>
    <path class="st12" d="M79.9,66.2c.4,2.1,1.5,5.6,2.4,6.2,1.3.8,12.6-3.5,13.7-8.9,0-.3-1.2-2.4-1.4-2.7-4.4,4-14.4,7.1-14.8,5.4Z"/>
    <path class="st20" d="M102.6,58.1c-2.7-1.7-7.7-1.4-8.5,2.5-.7,3.9,9.6,7.8,10.9,3.1.5-1.9-1.6-5-2.5-5.6Z"/>
    <path class="st12" d="M94.2,60.7c-1,4.4,9.9,8,11.2,3.3.3-.9-.6-3.2-1.1-4.2-3,1.2-8,2.3-10.1.9Z"/>
    <path class="st20" d="M106.6,68.7s-11.1-9.8-6.1-13.4c1.6-1.2,11.6,1.7,13,3.3,3,3.3-6.8,10.2-6.8,10.2Z"/>
    <path class="st12" d="M107.7,64.2c-4-1.1-8.3-6.5-8-8.2-2.9,4.1,6.8,13.1,6.8,13.1,0,0,6.2-4.7,7.3-8.1-1.3.9-2.9,4.1-6.1,3.2Z"/>
    <path class="st20" d="M85.7,118.5c-7.8-16.2-9.5-40.7-1.9-52.7l.4.4c-7.5,11.8-5.5,34.9,2.2,51.1l-.8,1.1Z"/>
    <path class="st20" d="M88.5,114.7c-6.9-14.6-8.9-37.7-2.9-50l.5.4c-6,12.2-3.7,33.9,3.1,48.5l-.7,1.2Z"/>
    <path class="st20" d="M91.4,109.5c-7.4-13.3-9.3-34.6-3.5-45.1l.5.4c-5.7,10.3-3.4,30.6,3.9,43.8l-.9.9Z"/>
    <path class="st10" d="M116.8,57.2c-2.3,1.8-8.1,7.6-8.1,7.6,0,0,6.5-1.7,9.5-2.9-.1-1.2-.4-2.4-.9-3.6-.1-.4-.3-.7-.5-1.1Z"/>
    <path class="st10" d="M97.5,57.5c2.9,2.5,9,6.9,9,6.9,0,0-3.5-7.4-5.3-10.7-1.4,1-2.7,2.2-3.6,3.7Z"/>
    <path class="st26" d="M116.3,58.7c-1.4,1.1-5,4.7-5,4.7,0,0,4-1.1,5.8-1.8,0-.7-.3-1.5-.6-2.2,0-.2-.2-.5-.3-.7Z"/>
    <path class="st26" d="M99.1,57.6c1.7,1.4,5.4,4.6,5.4,4.6,0,0-2.2-4.9-3.3-6.8-.8.6-1.5,1.3-2.1,2.2Z"/>
    <path class="st20" d="M84.6,66.6c.2-.6,0-1.2-.4-1.4-.4-.2-.8.1-1,.7-.1.6,0,1.2.4,1.4.4.2.8-.1,1-.7Z"/>
    <path class="st20" d="M86.5,65.3c.3-.6.2-1.4-.2-1.7-.4-.3-.9,0-1.1.7-.2.6-.1,1.4.2,1.6.4.3.9,0,1.1-.7Z"/>
    <path class="st20" d="M88.7,65.5c.3-.6.3-1.3,0-1.7-.3-.3-.9-.1-1.2.5-.3.6-.3,1.3,0,1.7.3.3.9.1,1.2-.5Z"/>
    <path class="st15" d="M88.7,64.8c.1-.2,0-.5-.2-.7-.2-.2-.5-.2-.6,0-.1.2,0,.5.2.7.2.2.4.2.6,0Z"/>
    <path class="st15" d="M86.4,64.6c.1-.2,0-.5-.2-.7-.2-.2-.4-.2-.6,0-.1.2,0,.5.2.7.2.2.4.2.6,0Z"/>
    <path class="st15" d="M84.5,66.2c.1-.2,0-.5-.2-.7-.2-.2-.4-.2-.5,0-.1.2,0,.5.2.7.2.2.4.2.5,0Z"/>
    <path class="st12" d="M117.7,108.1c-2-8-12.2-40-12.3-40.3h1.6c0,.3,8.9,32.3,10.9,40.3h-.3Z"/>
  </g>
</svg>