<?xml version="1.0" encoding="UTF-8"?>
<svg id="Layer_1" xmlns="http://www.w3.org/2000/svg" version="1.1" viewBox="0 0 300 200">
  <!-- Generator: Adobe Illustrator 29.1.0, SVG Export Plug-In . SVG Version: 2.1.0 Build 142)  -->
  <defs>
    <style>
      .st0 {
        fill: #d9655b;
      }

      .st1 {
        fill: #48393c;
      }

      .st2 {
        fill: #9c302b;
      }

      .st3 {
        fill: #614d52;
      }

      .st4 {
        fill: #f05165;
      }

      .st5 {
        fill: #fff7e3;
      }

      .st6 {
        fill: #71585f;
      }

      .st7 {
        fill: #896f77;
      }

      .st8 {
        fill: #6e545b;
      }

      .st9 {
        fill: #e2cda1;
      }

      .st10 {
        fill: #ed8b7f;
      }
    </style>
  </defs>
  <path class="st10" d="M141.5,7c20.2,7.5,6.9,49.4-16.2,61.5-27.5,14.4-75.5,31.4-77.5,79.9-1.4,32.4,23,50.5,51.3,46.5l-4-17.5c-12.7.9-34.2-5.8-34.2-32.5s37.5-52.2,60.9-65.8c39-22.7,43.1-67,19.8-72.1Z"/>
  <g>
    <path class="st0" d="M47.7,149.5c-.7,31.7,23.4,49.3,51.3,45.4l-1.6-6.9c-25.3,2.5-47.2-12.1-49.7-38.5Z"/>
    <path class="st0" d="M141.5,7c0,0,.1,0,.2,0,0,0,0,0,0,0,0,0,0,0,0,0Z"/>
    <path class="st0" d="M144.5,8c17.2,9.9,11.4,47.6-24,67.7-23.1,13.1-60.3,37.9-59.9,63.7,0,1.6.1,3.2.3,4.7.8-26.4,37.8-51.5,60.8-65,37.2-21.7,42.6-63,22.8-71.1Z"/>
  </g>
  <path class="st1" d="M179.3,200h-35.3s18.7-6,25-6.1c9-.1,10.4,6.1,10.4,6.1Z"/>
  <path class="st1" d="M181.8,180c3.9,9.7,14.6,13.1,24.2,13.1l.6-1.4s-22-6.3-15.8-29.8c1.2-4.5.4-11.7-5.8-4.7-6.2,7-4.8,18.8-3.2,22.8Z"/>
  <path class="st1" d="M214.2,121.9c-1.6-11.2-17.1-36.7-19.5-37.2-2.4-.4-12.3,19.4,3,33.3,2.6,2.3,16.9,7.3,16.4,3.9Z"/>
  <path class="st3" d="M214.2,120.6c-2.1-10-15.7-32.4-17.3-32.4-1.4,0-4,16.5,5.5,27.2,1.8,2,12.4,8.1,11.8,5.2Z"/>
  <path class="st8" d="M212.2,116.9c-1.5-7.1-11.3-23.3-12.4-23.3-1,0-2.9,11.8,3.9,19.5,1.3,1.4,8.9,5.8,8.5,3.8Z"/>
  <path class="st1" d="M204.1,153.2l-14.1-33.3s-17.1,5.7-27.4,1.8c-11.7-9.9-34.9-14.1-57.3-2.9-22.6,11.3-35.5,46.7-14.8,81.2h75.7c.1-.2.3-.4.4-.7h0c0,0,0-.2.1-.2,1.2-1.8,2.2-3.7,3.2-5.6,12.5-21.5,26.1-36.5,34.3-40.3Z"/>
  <path class="st3" d="M159.8,119.7c-12.3-8.4-33.8-11.2-54.6-.8-8.7,4.3-15.9,12.2-20.4,22.2,3.2,14.5,25.8,46.5,46.1,46.5,22.6,0,30.4-32.6,30.4-49.6s2.4-13.6-1.5-18.3Z"/>
  <path class="st6" d="M119.9,135.8c17.9,0,32.6-7.1,35-16.4-11.2-6.9-29.7-8.9-47.6,0-4.8,2.4-9.1,6-12.7,10.6,6.4,3.5,15.4,5.7,25.3,5.7Z"/>
  <path class="st1" d="M105.8,141.9c-29.1-2.7-26.8,27.5-10.5,53.2l30.7,1.4c3.8-15.9,0-52.7-20.2-54.6Z"/>
  <path class="st3" d="M173.8,153.6c7.1,8.7,30,9.6,38.5,6.4,0,0-19.7-38.5-44.4-37.1,0,0-5.4,16.9,5.9,30.7Z"/>
  <path class="st1" d="M188.5,151c8.4,3.2,21.1,8.3,22.2,8.7,0,0-3.4-25.8-20.8-22-5.8,1.3-11.6,9.4-1.4,13.3Z"/>
  <path class="st9" d="M205.1,156.2c-7.4-3-20.5-7-19.3-9.1,1.2-2.2,9.7-3.6,11.2-2.3,1.5,1.3,8.1,11.5,8.1,11.5Z"/>
  <path class="st5" d="M200.3,153.9c-5.2-2.1-14.4-4.9-13.5-6.4.9-1.5,4.2-2.3,5.2-1.3,1,.9,8.3,7.8,8.3,7.8Z"/>
  <path class="st3" d="M168,122.9c1.2-7.2,11.2-16,29.6-13.2,24.2,3.7,44.4,66.3,52.1,77l-3.2,1.7s-35.6-20.3-49.5-42.6c-10.4-16.7-29-22.9-29-22.9Z"/>
  <path class="st8" d="M236.2,160.6c-10-21.6-22.3-48.7-37.9-51-6.7-1-13.8,0-18.3,1.4,2.8,8.6,8.8,18.8,17.3,28.3,14.2,16,30.5,24.6,38.8,21.3Z"/>
  <path class="st3" d="M212.9,137.4l-22.8-10.6s.9-8.5,7.1-8.1c6.2.4,15.8,18.7,15.8,18.7Z"/>
  <path class="st8" d="M196,137.4c-10-7.3-32-8.4-24.8-19.5,7.2-11.1,18.5,7,24.8,19.5Z"/>
  <path class="st1" d="M197.1,145.2c-2.2-3.1-4.4-6-7.2-7.5,2.2,2.3,4.2,4.9,6.1,7.7,14.6,22.8,50.3,42.9,50.3,42.9l1.5-.8c-7.1-4.6-36.3-22.5-50.7-42.3Z"/>
  <path class="st3" d="M193,112.4c-6.6-9.9-34.2-27.3-36.9-26.4-2.7.9-1.9,27.8,20.5,32.3,3.5.7,18.4-3,16.4-5.9Z"/>
  <path class="st1" d="M190.8,113.5c-6.2-10.1-32.4-26.6-35.1-25.8-2.7.7-3.7,25.5,18.5,31,3.5.9,18.5-2.2,16.6-5.2Z"/>
  <path class="st0" d="M190.4,114c-4.7-7-27.3-19.4-29.2-18.8-1.9.6,1.5,19.8,17.5,23.1,2.5.5,13.1-2.2,11.7-4.2Z"/>
  <path class="st1" d="M209.1,135.2l-14.9-6.7,5-3.3s7.8,5.7,9.9,10Z"/>
  <path class="st4" d="M206.6,133.8l-10-4.6,3-1.8s5.5,3.6,7.1,6.4Z"/>
  <path class="st0" d="M243.8,187c2.2,4.6,8.4,7.2,10-.5,1.6-7.7-10,.5-10,.5Z"/>
  <path class="st3" d="M104.4,132.4c-29.2.6-30.3,41.9-14,67.6h26.5c3.8-15.9,17.9-68.2-12.5-67.6Z"/>
  <path class="st6" d="M120.3,146.8c0-1-.2-2-.3-3.1-2.4-6-7.1-10-15.2-9.8-6.3.1-11.2,2.3-14.7,5.9-.1,3.2,0,6.6.2,10.1,1.7,18.9,9.8,33.4,18.1,32.6,8.3-.9,13.6-16.9,11.9-35.7Z"/>
  <path class="st3" d="M131.8,200h-38.1s20.2-7.3,26.9-7.4c9.7-.1,11.2,7.4,11.2,7.4Z"/>
  <path class="st7" d="M128.8,200h4.4s-4.1-4.5-5-4.6c-1.2,0,.5,4.6.5,4.6Z"/>
  <path class="st7" d="M123.9,200h4.4s-2.9-4.5-3.7-4.6c-1.1,0-.8,4.6-.8,4.6Z"/>
  <path class="st7" d="M118.8,200h4.4s-2.4-4.5-3.1-4.6c-1.1,0-1.3,4.6-1.3,4.6Z"/>
  <path class="st1" d="M146.9,182c7.6,9.2,22.1,10,33,8.5l.2-1.5s-27.1-2.9-27.4-27.8c0-4.8-3.2-11.9-8.1-3.8-4.8,8.1-.8,20.9,2.3,24.7Z"/>
  <path class="st1" d="M174.8,189.9c3.6,1.7,7.7,5.9,8.4,6.5.7.6.3-2.7-.8-4.1-1.1-1.4-1.7-2.1-2.7-3.2-1-1-7.7-.6-4.9.8Z"/>
  <path class="st1" d="M193.4,189.3c2.6,3,4.6,8.4,5,9.2.4.8,1.5-2.3,1.1-3.9-.4-1.7-.7-2.6-1.2-3.9-.5-1.3-6.9-3.7-4.9-1.3Z"/>
  <path class="st3" d="M148.9,181.1c8,9.1,21.7,9.8,32.5,8.3l.2-1.5s-27.2-2.8-28.2-27.9c-.2-4.9-3.7-12.6-8.6-4.1-4.8,8.3.7,21.5,4,25.2Z"/>
  <path class="st10" d="M162.8,101.3c-.2,0-.3.3-.4.6,2.1,6,7.2,13.7,16.7,15.6,1.5.3,5.7-.5,8.7-1.6-8.1-6.9-23.5-15.1-25.1-14.6Z"/>
  <path class="st1" d="M185.7,144.9c1.6-1.5,9.7,4.5,9.7,4.5,0,0-4.7-5.5-4.1-6.4.7-.9-2.7-2.4-4.2-1.5s-1.4,3.5-1.4,3.5Z"/>
  <polygon class="st1" points="212.9 137.4 188.8 126.3 208.2 133.8 212.9 137.4"/>
  <path class="st1" d="M200.2,122.2h-2.7c0-.1,7.2,5.2,9.8,9,0,0-1.9-4.2-7.1-9Z"/>
  <path class="st2" d="M250.3,187.7c.8-1,1.6-2.5.9-2.9-.8-.4-2.7.4-4,1.5-1.6,1.3-.5,1.7.8,2,1.1.3,1.5.5,2.4-.6Z"/>
  <path class="st3" d="M179.2,187.6c3.7-.4,6.8-2.9,8.7-1.2,2,1.7,2.6,8.2,2.5,8.6-.1.4-3.6-5.4-4.5-5.7-.9-.4-5.3,1.3-6.5,1.3-1.2,0-2.1-2.8-.3-3Z"/>
  <path class="st3" d="M177.4,187.6c3.6.7,7.3-.7,8.7,1.5,1.4,2.2.4,8.7.1,9-.2.3-2-6.2-2.8-6.9-.8-.6-5.4-.4-6.6-.7-1.2-.3-1.3-3.3.5-2.9Z"/>
  <path class="st3" d="M173.8,186.6c3.4,1.5,7.2,1,8.2,3.5,1,2.5-1.4,8.5-1.6,8.8-.3.2-.7-6.6-1.4-7.4-.7-.8-5.2-1.6-6.3-2.2-1.1-.6-.6-3.5,1.1-2.7Z"/>
  <path class="st1" d="M201.6,189.4c3,0,5.7-1.8,7.2-.2,1.5,1.5,1.5,6.9,1.4,7.2-.1.3-2.5-4.7-3.3-5s-4.4.6-5.4.5c-1,0-1.5-2.4,0-2.4Z"/>
  <path class="st1" d="M200.2,189.3c2.9.9,6,0,7,2s-.3,7.1-.5,7.3c-.2.2-1.2-5.2-1.8-5.8-.6-.6-4.4-.7-5.3-1.1-.9-.4-.8-2.8.7-2.3Z"/>
  <path class="st1" d="M197.3,188.2c2.6,1.5,5.8,1.4,6.4,3.5.6,2.1-1.7,6.8-2,7-.2.2-.1-5.4-.6-6.1-.5-.7-4.1-1.7-4.9-2.3-.8-.6-.3-2.9,1.1-2.1Z"/>
</svg>