<?xml version="1.0" encoding="UTF-8"?>
<svg xmlns="http://www.w3.org/2000/svg" version="1.1" viewBox="0 0 300 200">
  <!-- Generator: Adobe Illustrator 29.1.0, SVG Export Plug-In . SVG Version: 2.1.0 Build 142)  -->
  <defs>
    <style>
      .st0 {
        fill: #fcb752;
      }

      .st1 {
        fill: #e1e04f;
      }

      .st2 {
        fill: #fee38d;
      }

      .st3 {
        fill: #e53045;
      }

      .st4 {
        fill: #503c41;
      }

      .st5 {
        fill: #fffdf7;
        mix-blend-mode: overlay;
      }

      .st6 {
        fill: #5890a0;
      }

      .st7 {
        isolation: isolate;
      }

      .st8 {
        fill: #dae479;
      }

      .st9 {
        fill: #523838;
      }

      .st10 {
        fill: #7caab9;
      }

      .st11 {
        fill: #c12850;
      }

      .st12 {
        fill: #babf45;
      }

      .st13 {
        fill: #f89942;
      }

      .st14 {
        fill: #715555;
      }

      .st15 {
        fill: #ffd366;
      }

      .st16 {
        fill: #a2d0dc;
      }

      .st17 {
        fill: #d4d348;
      }

      .st18 {
        fill: #cfce63;
      }

      .st19 {
        fill: #ffe6ae;
      }

      .st20 {
        fill: #ec5762;
      }

      .st21 {
        fill: #f9d48a;
      }

      .st22 {
        fill: #5c464c;
      }

      .st23 {
        fill: #ee3c6e;
      }

      .st24 {
        fill: #ce3143;
      }

      .st25 {
        fill: #9fa036;
      }

      .st26 {
        fill: #db4263;
      }

      .st27 {
        fill: #3d2b31;
      }
    </style>
  </defs>
  <g class="st7">
    <g id="Layer_1">
      <g>
        <g>
          <path class="st8" d="M272.6,148.4c.1.9,1.1,1.7,2.3,1.6,1.2-.1.8-4-.4-3.8-1.2.1-2,1.3-1.9,2.2Z"/>
          <path class="st8" d="M266.6,136.1c-.6.1-.9,1-.7,1.8.2.7.7,1.2,1.1,1.1.5,0,.8-.7.8-1.5,0-.9-.6-1.6-1.2-1.5Z"/>
          <g>
            <path class="st8" d="M283,139.4c-.7.1-1.1,1-.8,1.9.2.8,1.1,1.9,1.4,2,.4-.3.9-1.5.8-2.4,0-.9-.7-1.7-1.4-1.6Z"/>
            <path class="st8" d="M280.8,143c.1.7.9,1.1,1.6.9.6-.1,1.5-1,1.6-1.3-.3-.4-1.3-.9-1.9-.9-.8,0-1.3.6-1.2,1.3Z"/>
            <path class="st8" d="M286.2,142.4c-.1-.7-.9-1.1-1.6-.9-.6.1-1.5,1-1.6,1.3.3.4,1.3.9,1.9.9.8,0,1.3-.6,1.2-1.3Z"/>
            <path class="st8" d="M283.9,145.3c.7-.1,1.1-.9.9-1.6-.2-.6-1-1.5-1.3-1.6-.4.3-.9,1.3-.9,1.9,0,.8.6,1.4,1.3,1.2Z"/>
          </g>
          <g>
            <path class="st8" d="M258.3,130.7c-.7-.1-1.4.6-1.5,1.5-.1.8.3,2.1.6,2.4.4-.2,1.4-1.1,1.6-1.9.3-.9,0-1.8-.7-2Z"/>
            <path class="st8" d="M255,133.3c-.1.7.4,1.3,1.2,1.4.6,0,1.7-.4,1.9-.7-.1-.4-.9-1.3-1.5-1.6-.7-.3-1.5,0-1.6.8Z"/>
            <path class="st8" d="M260.3,134.6c.1-.7-.4-1.3-1.2-1.4-.6,0-1.7.4-1.9.7.1.4.9,1.3,1.5,1.6.7.3,1.5,0,1.6-.8Z"/>
            <path class="st8" d="M257.1,136.5c.7.1,1.3-.4,1.4-1.1,0-.6-.4-1.7-.7-2-.4.1-1.3.9-1.5,1.5-.2.7.1,1.5.8,1.6Z"/>
          </g>
          <g>
            <path class="st8" d="M259.1,149.7c-.4,0-.8.3-.8.8,0,.4.2,1.2.3,1.3.2,0,.8-.6.9-1.1.2-.5,0-1-.4-1.1Z"/>
            <path class="st8" d="M257.2,151.1c0,.4.2.7.6.8.4,0,1-.2,1.1-.4,0-.2-.5-.7-.8-.9-.4-.1-.8,0-.9.4Z"/>
            <path class="st8" d="M260.2,151.8c0-.4-.2-.7-.7-.8-.4,0-1,.2-1.1.4,0,.2.5.7.8.9.4.1.8,0,.9-.4Z"/>
            <path class="st8" d="M258.4,152.9c.4,0,.7-.2.8-.6,0-.4-.2-1-.4-1.1-.2,0-.7.5-.8.8-.1.4,0,.8.4.9Z"/>
          </g>
          <g>
            <path class="st8" d="M270.7,155.7c-.5-.2-.9.2-1.1.8-.1.5.1,1.6.3,1.8.4,0,1.1-.7,1.2-1.3.2-.5,0-1.1-.5-1.3Z"/>
            <path class="st8" d="M268.1,157.1c-.2.5.2,1.1.8,1.3.5.1,1.4-.2,1.6-.4,0-.3-.6-1.1-1-1.3-.5-.3-1.1-.1-1.3.4Z"/>
            <path class="st8" d="M272,158.5c0-.5-.3-1-.8-1.2-.4-.1-1.2.1-1.4.3,0,.4.6,1.1,1.1,1.4.5.3,1.1,0,1.2-.5Z"/>
            <path class="st8" d="M269.4,160c.6.2,1.1-.3,1.2-1,0-.5-.3-1.4-.5-1.6-.3,0-1.1.5-1.3,1-.3.6,0,1.4.5,1.5Z"/>
          </g>
          <g>
            <path class="st8" d="M289.1,153c-.3-.8-1.4-1-2.3-.5-.8.4-1.9,2-1.9,2.5.6.3,2.2.5,3.1.1.9-.4,1.4-1.4,1.1-2.1Z"/>
            <path class="st8" d="M284.2,151.3c-.9.3-1.2,1.5-.6,2.5.5.8,1.9,1.6,2.4,1.6.3-.5.6-2,.4-2.8-.3-1-1.2-1.6-2.1-1.3Z"/>
            <path class="st8" d="M287.1,158c.7-.5.9-1.6.5-2.4-.4-.7-1.7-1.5-2.1-1.5-.4.5-.7,2.1-.4,3,.3,1,1.3,1.4,2.1.9Z"/>
            <path class="st8" d="M282.1,156.4c.5.9,1.8,1.1,2.7.4.8-.5,1.5-2,1.5-2.4-.5-.4-2-.7-2.9-.5-1.1.3-1.8,1.5-1.3,2.5Z"/>
          </g>
          <g>
            <path class="st8" d="M286.6,126.4c-.5-.6-1.4-.6-2.1,0-.6.6-1.2,2.1-1.1,2.6.6.2,2,0,2.7-.6.7-.5,1-1.5.5-2.1Z"/>
            <path class="st8" d="M281.9,125.9c-.7.5-.7,1.6,0,2.3.6.6,2,1,2.4.9.2-.5.1-1.9-.3-2.5-.5-.8-1.4-1.1-2.1-.7Z"/>
            <path class="st8" d="M285.9,131.2c.5-.6.4-1.6-.1-2.2-.5-.5-1.8-.9-2.2-.8-.2.5-.2,2,.3,2.7.5.8,1.4,1,2,.3Z"/>
            <path class="st8" d="M281.2,130.9c.6.7,1.8.6,2.5-.2.5-.6.9-2,.8-2.5-.5-.2-1.9-.2-2.6.2-.9.5-1.3,1.7-.6,2.4Z"/>
            <path class="st8" d="M287.3,130.1c.3.4.9.4,1.3,0,.3-.3.3-.9,0-1.3-.3-.4-.9-.4-1.3,0-.3.3-.3.9,0,1.3Z"/>
          </g>
        </g>
        <g>
          <path class="st8" d="M67.7,159.7s-3.3,12.3-11.5,12.4c-8.2,0-9.4-8.4-9.4-8.4,0,0-8.4,6.3-13.2.6-4.9-5.7-4.7-9.9,1.4-16.8-10.8-5.9-2.5-19.3,8-14.3-3.4-12.3,14.2-16.8,20.5-5.1,10.3-14.8,22.3,20.5,25.5-1.1.4-2.7,4.5,8.4-1.8,10.4-4.3,1.4-5.6,8.3-2.4,14.5,3.5,6.7-1.9,15.6-9.9,16.4-8.1.8-7.2-8.6-7.2-8.6Z"/>
          <path class="st18" d="M79.1,151.7c-4-1.4-8.8,2.1-10.8,7.9-.2.7-.4,1.4-.6,2.1,0-1.1,0-1.9,0-1.9,0,0-2.2,8.2-7.5,11.3,1.2-1.2,2.2-2.7,3-4.5,2.6-5.8,1.3-12-2.8-13.9-4.2-1.9-9.7,1.2-12.3,7-.6,1.4-1,2.8-1.2,4.2,0-.1,0-.2,0-.2,0,0-2.7,2-5.9,2.7,4.9-2.6,7.3-8.1,5.5-12.7-1.8-4.4-6.8-6.7-11.9-5.6.2-.2.3-.4.5-.6-.1,0-.2-.1-.3-.2,5.5-1,9.4-5.3,8.8-9.9-.2-1.9-1.1-3.6-2.6-4.9.6.2,1.2.4,1.8.6,2.5,4.1,7.4,5.9,11.4,4,4.2-2,5.7-7.4,3.4-12-.7-1.4-1.7-2.7-2.9-3.6,3.4.6,6.7,2.7,8.8,6.6,8.9-16.8,24.5,16.5,24.8-1.3,0-6.3,8,5.2.6,10.6-3.6,2.7-7.3,8.3-4.1,14.5,2.1,4,1,8.8-1.9,12.1,1.6-5.5,0-10.9-3.9-12.3Z"/>
          <path class="st8" d="M53.5,148c-1.5,1.5-4.7,1.7-6.8-.4-2.1-2.1-1.8-8.9-2.3-10.6,1,.5,6.7,1.8,8.7,3.9,2,2.1,1.8,5.7.3,7.2Z"/>
          <path class="st8" d="M66.1,157.6c-1.4-4.2-7.3-6.1-7.3-12.1,0-5.1,3.4-7.8,7-8,3.6-.2,7,3.3,7.3,8.3.3,5-5.1,11.1-7.1,11.7Z"/>
          <path class="st8" d="M51.4,153.4c-.7,1.2-2.5,1.4-3.8.5-1.1-.8-1.5-2.1-1-3,.5-1,1.9-1.4,3.2-.8,1.5.6,2.2,2.2,1.5,3.4Z"/>
          <path class="st8" d="M64.5,131.3c1,1.2.2,3.5-1.6,4.9-1.6,1.2-3.3,1.4-4.2.4-.8-.9-.5-2.8.8-4.3,1.6-1.7,3.9-2.2,4.9-1Z"/>
          <g>
            <path class="st8" d="M38.5,124.6c.7.8.3,2.3-.8,3.2-1,.8-3.1,1.3-3.7,1.1-.1-.7.4-2.7,1.3-3.7,1-1.1,2.5-1.4,3.2-.6Z"/>
            <path class="st8" d="M37.6,131.2c-.8.7-2.2.5-2.9-.4-.6-.8-.8-2.6-.6-3.1.7-.2,2.5,0,3.3.7.9.7,1.1,2,.2,2.8Z"/>
            <path class="st8" d="M31.7,125.2c.8-.7,2.2-.5,2.9.4.6.8.8,2.6.6,3.1-.7.2-2.5-.1-3.3-.8-.9-.7-1.1-2-.2-2.8Z"/>
            <path class="st8" d="M31.6,131.1c-.7-.8-.5-2.1.4-2.8.8-.6,2.7-.8,3.2-.6.2.7-.1,2.4-.8,3.2-.8.9-2.1,1.1-2.8.2Z"/>
          </g>
          <g>
            <path class="st8" d="M84.4,141c1,.5,1.1,2,.4,3.3-.6,1.1-2.5,2.3-3.1,2.3-.4-.6-.6-2.7-.1-3.9.5-1.4,1.8-2.2,2.8-1.7Z"/>
            <path class="st8" d="M85.9,147.4c-.5,1-1.8,1.2-2.8.6-.9-.5-1.7-2.1-1.7-2.7.6-.4,2.4-.8,3.3-.5,1.1.4,1.7,1.5,1.2,2.5Z"/>
            <path class="st8" d="M78.2,143.9c.5-1,1.8-1.2,2.8-.6.9.5,1.7,2.1,1.7,2.7-.6.4-2.4.8-3.3.4-1.1-.4-1.7-1.5-1.2-2.5Z"/>
            <path class="st8" d="M80.3,149.4c-1-.5-1.2-1.8-.6-2.8.5-.9,2.2-1.7,2.8-1.7.4.6.8,2.3.4,3.3-.4,1.1-1.6,1.7-2.6,1.2Z"/>
          </g>
          <g>
            <path class="st8" d="M67.8,168.3c.5.3.6,1.1.2,1.8-.4.6-1.4,1.3-1.7,1.3-.2-.4-.3-1.5,0-2.2.3-.8,1-1.2,1.6-.9Z"/>
            <path class="st8" d="M68.7,171.9c-.3.5-1,.7-1.6.4-.5-.3-1-1.2-1-1.5.3-.2,1.3-.4,1.9-.3.6.2,1,.8.7,1.4Z"/>
            <path class="st8" d="M64.4,169.9c.3-.5,1-.7,1.6-.3.5.3,1,1.2,1,1.5-.3.2-1.3.4-1.9.2-.6-.2-1-.8-.7-1.4Z"/>
            <path class="st8" d="M65.5,173c-.5-.3-.7-1-.3-1.5.3-.5,1.2-1,1.5-1,.2.3.4,1.3.2,1.8-.2.6-.9,1-1.4.7Z"/>
          </g>
          <g>
            <path class="st8" d="M25.5,146.7c.8.3,1.1,1.3.6,2.2-.4.9-1.8,2-2.4,2.1-.4-.5-.6-2.1-.3-3,.3-.9,1.3-1.5,2-1.3Z"/>
            <path class="st8" d="M27.5,151.4c-.3.9-1.5,1.3-2.4.9-.8-.4-1.7-1.7-1.7-2.2.5-.4,1.9-.8,2.8-.6,1,.2,1.7,1.1,1.4,2Z"/>
            <path class="st8" d="M20.7,149.1c.5-.8,1.6-1,2.4-.7.7.3,1.6,1.5,1.6,2-.5.4-2.1.9-3,.7-1-.2-1.5-1.2-1-2Z"/>
            <path class="st8" d="M22.5,153.9c-1-.4-1.2-1.7-.6-2.7.5-.8,1.9-1.6,2.3-1.7.4.4.9,1.9.7,2.8-.3,1.2-1.4,1.9-2.4,1.5Z"/>
          </g>
          <g>
            <path class="st8" d="M12.4,136.9c.7-.4,1.7.1,2.1,1,.4.9.2,2.7,0,3.1-.6,0-2-1-2.5-1.8-.5-.9-.3-1.9.5-2.3Z"/>
            <path class="st8" d="M17.3,138.6c.5.8,0,1.9-1,2.3-.9.3-2.5,0-2.8-.2,0-.6.7-1.9,1.4-2.4.8-.6,1.9-.5,2.4.3Z"/>
            <path class="st8" d="M10.9,142c-.2-.9.3-1.8,1.1-2.2.7-.3,2.2-.1,2.6.2,0,.6-.8,2.1-1.5,2.6-.9.6-1.9.3-2.2-.6Z"/>
            <path class="st8" d="M15.7,143.9c-1,.4-2.1-.3-2.4-1.3-.3-.9,0-2.5.4-2.8.6,0,2,.7,2.5,1.4.7,1,.5,2.3-.5,2.7Z"/>
          </g>
          <g>
            <path class="st8" d="M48.8,112c.8-.2,1.6.5,1.8,1.5.2.9-.4,2.7-.8,3-.6-.2-1.7-1.4-2-2.4-.2-1,.2-2,1-2.2Z"/>
            <path class="st8" d="M53.1,114.7c.3.9-.5,1.9-1.6,2-.9.1-2.4-.5-2.7-.9.2-.6,1.2-1.7,2-2,.9-.4,2,0,2.3.9Z"/>
            <path class="st8" d="M46.1,116.6c0-.9.7-1.7,1.6-1.8.8-.1,2.2.4,2.4.8-.2.6-1.2,1.8-2.1,2.2-1,.4-1.9-.1-2-1.1Z"/>
            <path class="st8" d="M50.3,119.5c-1.1.2-1.9-.8-2-1.9,0-.9.7-2.4,1-2.7.6.1,1.8,1.1,2.1,2,.4,1.1,0,2.3-1.2,2.5Z"/>
            <path class="st8" d="M45.6,114.7c-.5,0-1-.3-1.1-.8s.3-1,.9-1.1c.5,0,1,.3,1.1.8,0,.5-.3,1-.9,1.1Z"/>
          </g>
        </g>
        <g>
          <path class="st15" d="M229.3,65.9c5.4,5.3,11.4,24.2,16.1,28.7,3,2.9-9.4,8.1-11.3,4.6-1.8-3.5-10.6-12.3-11.2-15.4-1.5-8.1,4.4-19.9,6.4-17.9Z"/>
          <path class="st0" d="M232.8,77.4c-4-8.1-11.4-1.7-9.9,6.4.6,3.1,9.4,11.9,11.2,15.4,1.2,2.2,5.1.9,8.2-1-2.8-1.8-6.5-14.7-9.4-20.8Z"/>
          <path class="st15" d="M233.1,97.8c2.4,5.8,10.1,13.6,19.1,16.4l3.6-4.6s-6.9-13.2-11.7-17.2c-4.8-4-12.1,2.5-10.9,5.4Z"/>
          <path class="st0" d="M254.2,109.9c-10.6-4.7-15.8-18.1-17.1-21.1-3.1,1.2-4.8,7.1-4.1,8.9,2.4,5.8,10.1,13.6,19.1,16.4l3.6-4.6s-.1-.3-.4-.8l-1.1,1.2Z"/>
          <path class="st19" d="M236,104.3c1.3-2.1,11.6-8.1,14.1-5.8,2.5,2.3,8,12.9,8.1,13.1.2.3-4.3,3.3-5.2,3.5-.9.2-12.3-4.5-17.1-10.8Z"/>
          <path class="st21" d="M239,101.8c-1.5,1-2.6,1.9-3,2.5,4.8,6.3,16.2,11,17.1,10.8.3,0,2.6-1.5,3.5-2.1-1.7-2.1-13.7-8.2-17.6-11.3Z"/>
          <path class="st21" d="M256.1,108.2s0-1,.9-.5c1.5.8,2.8,2,4.8,3.7.6.5.5,5.1.3,6.7-.8-.4-7.7,1.4-7.7,1.4,0,0-2.5-2.1-3.3-4.7-.2-.8-3.1-4.5-4.5-6.1,4.1,1.3,9.4,2.7,10.5,2,1.9-1.2-1-2.6-1-2.6Z"/>
          <path class="st15" d="M227.2,55c-1.7-3.6-5-5.6-7.5-4.4s-3.2,5.1-1.5,8.7c1.7,3.6,5,5.6,7.5,4.4,2.5-1.2,3.2-5.1,1.5-8.7Z"/>
          <g>
            <path class="st20" d="M221.1,173c-12.7,0-14.6-14.6-16.4-27.5-1.6-11.8-3.1-22.9-11.6-22.9s-5.6,6-5.6,15.7h-2.2c0-9.2,0-17.9,7.8-17.9s12.1,12.6,13.8,24.8c1.7,12.6,3.5,25.6,14.2,25.6s13.7-15.1,17.7-29.8c3.9-14.4,7.6-28,16.8-28s17,7.8,20.7,23.8l-2.2.5c-3.4-14.9-9.5-22.1-18.5-22.1s-11.1,13.4-14.6,26.4c-4.2,15.4-8.6,31.4-19.9,31.4Z"/>
            <path class="st24" d="M252.8,113.5c-7.1,2.5-10.5,14.7-14,27.5-4,14.6-8.1,29.8-17.7,29.8s-12.5-13-14.2-25.6c-1.7-12.2-3.4-24.8-13.8-24.8s-7.8,8.7-7.8,17.9h2.2c0-9.7.3-15.7,5.6-15.7,8.5,0,10,11.1,11.6,22.9,1.7,12.9,3.7,27.5,16.4,27.5s15.7-16,19.9-31.4c1.2-4.3,2.3-8.6,3.7-12.4.6-6.3,3.7-11.9,8.2-15.6Z"/>
          </g>
          <path class="st15" d="M242.5,173.1h1.5l-2.7-35.6s-5.1-41.1-6.3-43.8l-11.3,4.6-5,9.5,12.5,32.7,11.3,32.5Z"/>
          <path class="st0" d="M241.3,137.5s-3.2-25.3-5.1-37.5c1.8,12.7,3.8,28.6,3.8,28.6l2.7,35.6h-1.5l-13.6-43-8.9-14.1-1.2,2.3,13.3,31.7,11.7,32h1.5l-2.7-35.6Z"/>
          <polygon class="st15" points="203.4 104.3 206.4 138.7 207.9 172.8 209.1 173.1 216.6 140.1 222 122.1 228.6 118.8 229.1 98.5 203.4 104.3"/>
          <polygon class="st0" points="220.2 121.2 213.2 149.4 209.8 167.3 208.3 167 209.6 132.7 210.1 112.1 237.5 108.8 236.9 103.5 202.2 104.2 205.5 139.2 207.9 172.8 209.1 173.1 216.6 140.1 222.8 122.8 230.6 120.3 220.2 121.2"/>
          <path class="st15" d="M234.4,86l-5.1-20.1s-8.5-5.1-17.4-5.3c-8.9-.2-15.1,5.6-15.1,5.6l2.1,18.6,4,23.6,34.1-3.4-2.6-18.9Z"/>
          <path class="st0" d="M234.4,86.3c0,8.1-.9,15-6.3,16.3-11.4,2.7-18.4-3.1-22.7-14.6-4.9-12.7-8.6-8.2-8.6-8.2l6.1,28.6,34.1-3.4-.6-7.4-1.9-11.3Z"/>
          <path class="st19" d="M211.9,174.8h-12s8.1-4.4,9.3-4.2c1.2.2,2.7,4.2,2.7,4.2Z"/>
          <path class="st19" d="M251.3,174.8h-10.6s1.4-3,2.1-3.4c1-.5,8.5,3.4,8.5,3.4Z"/>
          <path class="st15" d="M197.8,65.2c-5.7,3.4-21.3,20.8-20.8,24.9.5,4.1,8.3,7,10.6,4.2,2.3-2.7,11.7-8.4,13.7-10.6,5-5.3-1.4-19.8-3.5-18.5Z"/>
          <path class="st0" d="M209,74.5s-4.8-7-4.3-9.7c.1-.8-1-1.5-2.6-2.2-1.9.9-3.4,1.9-4.3,2.6-1.7,1-4.1,3.1-6.8,5.8,6.3-2.3,15.2.6,18,3.5Z"/>
          <path class="st0" d="M180.7,90.9c-2.1-2.4,6.4-15.1,13.5-22.8-6.9,6.1-17.5,18.7-17.1,22,.5,4.1,8.3,7,10.6,4.2,2.3-2.7,12.9-7.3,14.4-9.9.8-1.3,1.7-2.9,1.9-4.2-7.4,8-20.5,13.8-23.3,10.6Z"/>
          <path class="st15" d="M201.4,65.2c-2.8-.9-1.9-2.3-.8-2.8,1.1-.5-3.1-21.9-2.1-25.3,1-3.2,5.5-7.5,13.8-7.9,4.1-.2,10.5.8,8.9,3.3-.9,1.3,5.4,27.7,5.6,27.7,1.9.3,2.4,4.2,1.4,5s-26.7,0-26.7,0Z"/>
          <path class="st0" d="M219.9,64.6c-.1-1,3.5-3.9,8-3.7-.3-.4-.6-.6-1.1-.7,0,0,0-.2-.2-.5-.5.2-4.8-2-5.4-1.9-5.5.8-7.3,3.8-10.8-1-6.1-8.4-7.5-25.1-2.3-27-6.2,1.4-10.8,5-11.7,7.6-1,3.4,3.2,24.6,2.2,25.1-1.1.5-1.5,2.4,1.3,3.5,3.2,1.3,20.8,3.8,28.3-.8.1,0,.2-.2.3-.4-3.8,1.7-8.4.8-8.6-.3Z"/>
          <path class="st10" d="M211,49.8c0-.3-2.5-14.7-2.5-14.7l12.6-2.6s5.5,13.3,5.6,27.7l-11.5-.8-4.2-9.6Z"/>
          <path class="st6" d="M217.5,33.9l-8.2,1.7s2.4,13.6,2.4,14l4,9.1,9.9.7c-3.3-5.3-7.3-17.2-8.1-25.5Z"/>
          <path class="st22" d="M226.8,59.9l-11.6-1-3.9-9.2c0-1.2-1.4-8.3-2.5-14.4l12.1-2.5s0,0,0,0l.5-.2c0-.2,0-.2-.1-.3v-.2c0,0-13.2,2.7-13.2,2.7v.3c1.1,5.6,2.5,14,2.6,14.6h0c0,0,4.3,9.9,4.3,9.9l11.8.8v-.6Z"/>
          <path class="st22" d="M211.1,49.3l1.7,10.2,6.8.2c0-1.6-.3-3.3-1.1-5-1.7-3.5-4.8-5.7-7.4-5.4Z"/>
          <path class="st15" d="M217.8,55.3c-2-4.1-6-6.2-9.1-4.8-3.1,1.4-4,5.9-2,9.9,2,4.1,6,6.2,9.1,4.8,3.1-1.4,4-5.9,2-9.9Z"/>
          <path class="st0" d="M215.7,57c-2.5-4.2-6.6-6.5-9.1-5.2-2.5,1.3-2.6,5.8,0,10,2.5,4.2,6.6,6.5,9.1,5.2,2.5-1.3,2.6-5.8,0-10Z"/>
          <path class="st4" d="M216.7,55.6c-1.6-3.3-4.9-5-7.4-3.8-2.5,1.2-3.3,4.9-1.7,8.2,1.6,3.3,4.9,5,7.4,3.8,2.5-1.2,3.3-4.9,1.7-8.2Z"/>
          <path class="st27" d="M215.3,56.3c-1-2.1-3.2-3.3-4.8-2.5-1.6.8-2.1,3.2-1.1,5.3,1,2.1,3.2,3.3,4.8,2.5,1.6-.8,2.1-3.2,1.1-5.3Z"/>
          <path class="st21" d="M213.8,56.9c-.5-.9-1.4-1.4-2.1-1.1-.7.3-.9,1.4-.5,2.3.5.9,1.4,1.4,2.1,1.1.7-.3.9-1.4.5-2.3Z"/>
          <polygon class="st15" points="189.8 125.8 183.7 125.8 182.3 130.8 191.2 130.8 189.8 125.8"/>
          <path class="st12" d="M198.6,131.8c0-1.6-1.3-2.9-2.9-2.9h-17c-1.6,0-2.9,1.2-2.9,2.8l-.9,42h23.7v-42Z"/>
          <path class="st25" d="M184.3,169.9c-1.6,0-2.9-1.3-2.9-2.9v-38.1h-2.6c-1.6,0-2.9,1.2-2.9,2.8l-.9,42h23.7v-3.9h-14.3Z"/>
          <g>
            <rect class="st1" x="190.4" y="153.6" width="6.9" height="5.8"/>
            <path class="st1" d="M197.3,151.3v-17.6c0-1.7-.9-3.1-2-3.1h-2.8c-1.2,0-2.1,1.3-2.1,2.9v17.8h6.9Z"/>
          </g>
          <rect class="st15" x="174.1" y="172.7" width="25.3" height="2.1"/>
          <polygon class="st20" points="202.3 108.9 201.9 106.8 237.1 104 237.4 106 202.3 108.9"/>
          <g>
            <path class="st3" d="M235,105.7c0,.2,0,.4-.1.6l2.6-.2-.3-2.1-2.9.2c.5.4.8.9.8,1.4Z"/>
            <path class="st3" d="M213.4,105.9l-11.5.9.5,2.1,12.9-1.1c-1.1-.6-1.7-1.3-1.8-2Z"/>
          </g>
          <path class="st15" d="M178.1,90.5c2.7,5.7,10.1,13.5,19.3,15.8l3.3-4.8s-5-9.9-10-13.5-13.9-.3-12.5,2.6Z"/>
          <path class="st0" d="M191.8,88.1c.1,1.5-2.4,6.2-6.3,6.2s-5.5-3.9-4.2-8.2c-2.7.9-4.7,3.5-4.1,4.9,2.7,5.7,10.9,12.9,20.1,15.1l3.3-4.8s-4.1-9.1-8.8-13.2Z"/>
          <path class="st19" d="M182.4,99.1c1.2-2.2,10.4-8.4,13.1-8,2.2,2,9.5,13.2,9.7,13.5.2.3-4,3.7-4.9,3.9-.8.2-12.6-3.5-17.9-9.4Z"/>
          <path class="st21" d="M186.7,95.3c-2.1,1.5-4.4,3.2-4.9,4,5.3,5.9,17.7,9.4,18.5,9.2.4-.1-9.7-7.6-13.6-13.2Z"/>
          <polygon class="st0" points="215.8 120.1 219.7 122.3 222.9 122.5 224.4 121.1 220 121.3 215.8 120.1"/>
          <path class="st0" d="M209,89.4c4,9.3,7.1,14.7,14.8,14.4-4.7-1.9-9-5.1-14.8-14.4Z"/>
          <path class="st5" d="M186.4,147.2c-4.6,0-8.4,3.8-8.4,8.4s3.8,8.4,8.4,8.4,8.4-3.8,8.4-8.4-3.8-8.4-8.4-8.4ZM186.4,161.5c-3.3,0-5.9-2.7-5.9-5.9s2.7-5.9,5.9-5.9,5.9,2.7,5.9,5.9-2.7,5.9-5.9,5.9Z"/>
          <path class="st0" d="M207.9,65.3l-3.4,1.7c7.5,4,17.8,3.9,21.5,1.8,0,0-11.1,1-18.2-3.6Z"/>
          <path class="st16" d="M224.8,47.6c-1.3-7.9-3.8-13.8-3.8-13.8l-1.5.3c.6,6.5,2.9,12.5,5.3,13.5Z"/>
          <g>
            <g>
              <path class="st4" d="M213.6,84c-.2,1.1-1.2,1.4-1.7,1.1-.4-.3-.6-1.1,0-1.8,1.1-1.4,2.2-1.5,1.8.7Z"/>
              <path class="st4" d="M213.8,82.3c-1.4-1.3.6-2.8,1.4-1.4.8,1.4-.1,2.7-1.4,1.4Z"/>
              <path class="st15" d="M213.9,82.2c-1.1-1.1.5-2.2,1.1-1.1s0,2.2-1.1,1.1Z"/>
              <path class="st4" d="M213.4,83.3c-1.7-1-.1-3,1.1-1.8,1.2,1.2.6,2.8-1.1,1.8Z"/>
              <path class="st15" d="M213.5,83c-1.4-.8,0-2.4.9-1.4,1,.9.5,2.2-.9,1.4Z"/>
              <path class="st4" d="M211.9,82.8c-1.9.8-3.6.5-2.9-.7.6-1.1,2.9.7,2.9.7Z"/>
              <path class="st4" d="M212.3,82.6c-1.8-.9-2.6-2.5-1.3-2.7,1.3-.2,1.3,2.7,1.3,2.7Z"/>
              <polygon class="st4" points="213.1 85.9 212.2 84.7 212.4 84.7 213.2 85.8 213.1 85.9"/>
              <polygon class="st4" points="213.6 85.8 212.9 84.7 213 84.6 213.8 85.8 213.6 85.8"/>
              <polygon class="st4" points="214 85.4 213.2 84.2 213.3 84.1 214.1 85.3 214 85.4"/>
              <polygon class="st4" points="214.1 84.9 213.4 83.7 213.5 83.6 214.3 84.8 214.1 84.9"/>
            </g>
            <path class="st20" d="M212.5,77.6c-2.9,0-5.3,2.4-5.3,5.3s2.4,5.3,5.3,5.3,5.3-2.4,5.3-5.3-2.4-5.3-5.3-5.3ZM212.5,87.4c-2.5,0-4.5-2-4.5-4.5s2-4.5,4.5-4.5,4.5,2,4.5,4.5-2,4.5-4.5,4.5Z"/>
            <polygon class="st20" points="217.3 83.6 217.3 82.8 207.5 82.7 207.5 83.6 217.3 83.6"/>
          </g>
          <g>
            <path class="st19" d="M204.2,102.9c3.2-.3,4.8-.5,5.8.5,1,.9,1.9,4.9,1.6,5.9-.3,1-3.6.2-4.2.1-.6,0-1-1.8-.6-2.2.5-.4,2.2-.8,2.2-1.2,0-.4-.3-.8-.3-.8,0,0-4.4,0-4.5-2.4Z"/>
            <path class="st19" d="M207.8,109.3c.1-1.1,1.9-1.5,2.2-1,.3.5,2.4,3.4,2,4.1-.4.7-1.8,1.5-2.2,1.1-.4-.4-2.1-3.4-2-4.3Z"/>
            <path class="st19" d="M205.1,110.1c.1-1.1,1.9-1.5,2.2-1,.3.5,2.4,3.4,2,4.1-.4.7-1.8,1.5-2.2,1.1-.4-.4-2.1-3.4-2-4.3Z"/>
            <path class="st19" d="M202.7,111.3c.2-1.1,1.9-1.6,2.1-1.1.3.5,2.2,3.1,1.8,3.8-.4.7-1.8,1.5-2.1,1.2-.4-.3-1.9-3.1-1.8-3.9Z"/>
            <path class="st19" d="M201,99s2.6,3.3,3.6,3.7c1.6.5,3.1,1.5,5.4,2.8.7.4,1.3,4.9,1.4,6.6-.9-.2-7.4,2.7-7.4,2.7,0,0-2.7-2.5-3.9-4.9-.4-.7-2.6-4.1-4.1-5.4-1.9-1.5,5-5.5,5-5.5Z"/>
          </g>
          <path class="st19" d="M254.6,106.6c2.4,1.8,6.4,1.8,7.2,2.9.8,1.1,1,5.1.6,6.1-.5,1-3.5-.4-4.1-.5-.6-.2-.7-1.9-.2-2.2.5-.3,2.3-.4,2.3-.8,0-.4-.2-.6-.2-.6,0,0-7.2.8-5.6-4.8Z"/>
          <path class="st19" d="M258.5,114.7c.3-1.1,2.2-1.2,2.3-.6.2.6,1.8,3.8,1.3,4.4-.5.6-2.4.7-2.7.3-.3-.4-1.2-3.2-.9-4.1Z"/>
          <path class="st19" d="M255.1,115c.3-1.1,2.2-1.2,2.3-.6.2.6,1.9,4.1,1.3,4.7-.5.6-2.5.6-2.8.1-.3-.4-1.1-3.4-.8-4.2Z"/>
          <path class="st19" d="M251.9,115.7c.4-1,2.1-1.2,2.3-.7.2.5,2,3.9,1.5,4.6-.5.6-2.4.7-2.7.3-.3-.4-1.4-3.3-1.1-4.2Z"/>
          <polygon class="st19" points="273.5 137.8 269.7 127.4 274.9 125.4 276.8 137.2 273.5 137.8"/>
          <polygon class="st12" points="273.4 135 271.3 129.3 274.1 128.2 275.2 134.7 273.4 135"/>
        </g>
        <g>
          <path class="st12" d="M155.8,106l25.5-3.8c1.7-.9,2.6-1.7,3.1-3.4.5-1.6-1.3-45-3.4-47.3-2-2.2-3.5-2.6-6.4-2.5l-20.3,5.2-1.2,47.7,2.7,4Z"/>
          <path class="st17" d="M174.9,50.1c2.3,0,3.4.5,4.9,2.6.5.7,1.1,5.8,1.5,12.2.2,2.4-1.2,4.5-3.2,5l-2.4.6c-2.3,0-3.4-.4-5-2.3-.6-.7-1.3-5.9-2-12.3-.3-2.5,1.2-4.7,3.3-5.2l2.8-.6Z"/>
          <path class="st17" d="M179.5,71.7c.9,0,1.3.2,1.8,1,.2.3.4,2.2.6,4.6,0,.9-.4,1.7-1.2,1.9l-.9.2c-.9,0-1.3-.1-1.9-.9-.2-.3-.5-2.2-.7-4.6,0-.9.4-1.8,1.2-1.9l1.1-.2Z"/>
          <path class="st15" d="M120.7,85.1c1.3-4.2,5.3-15.8,9.5-20l3,26c-1.4,2.6-11.6,19.7-12.7,20-1.1.3-6.6-5.4-6.6-5.4,0,0,5.5-16.3,6.8-20.6Z"/>
          <path class="st0" d="M127.9,68.1c.8-1.2,1.6-2.3,2.3-3.1l4.8,26.3c-1.4,2.6-13.3,19.4-14.5,19.7-.7.2-3.2-2-4.9-3.7,6.9-4.7,7.3-30.6,12.3-39.2Z"/>
          <path class="st11" d="M127.6,72.3c1-7.9,5.5-13.8,10.2-13.1,4.7.7,7.7,7.7,6.8,15.6-1,7.9-5.5,13.8-10.2,13.1-4.7-.7-7.7-7.7-6.8-15.6Z"/>
          <path class="st20" d="M127.6,72.3c.4-3.1,1.3-5.9,2.6-8.1.3,2,.4,4.3.1,6.6-.4,3.1-1.3,5.9-2.6,8.1-.3-2-.4-4.3-.1-6.6Z"/>
          <path class="st19" d="M129.7,102.9c-3.2-5.1-14-6.1-14-6.1l-4.7,15.5,7.7,3.3,10.9-12.7Z"/>
          <path class="st21" d="M113.2,112.3c-1.3,1.3-3.3-.6-4.8,1.8-.5.7,1,5.4,1.7,7,.8-.6,8.4-.8,8.4-.8,0,0,1.4-3.7,1.5-6.6,0-.9,1.7-4.2,2.6-6.2.5-1.1-4.3,4.7-9.4,4.8Z"/>
          <path class="st21" d="M119.3,104.8c1-2.5.9-4.9,1.2-7.1,3.3.8,7.5,2.4,9.2,5.2l-10.9,12.7s-.9-7.3.5-10.8Z"/>
          <polygon class="st15" points="110.3 174.2 109.5 174.2 114.9 139.7 121.4 118.6 124.8 103 143.5 108 137.7 128.7 125.2 145.1 110.3 174.2"/>
          <polygon class="st0" points="119.9 143.4 129.8 122 135.4 105.5 150.1 112.2 139.7 127.1 125.5 145.5 110.3 174.2 109.8 174.2 119.9 143.4"/>
          <path class="st15" d="M129.7,105.4c0,9.4.8,14,.8,14l2.8,1.1s11,28.3,11.7,29.8c.7,1.5,10.6,23.9,10.6,23.9h1.5s-2.9-24.8-3.2-28.4c-.3-3.6-1.7-27.3-1.7-27.3l3.2-13,.8-11.6-26.5,11.5Z"/>
          <polygon class="st0" points="138.3 116.2 133.2 120.5 130.7 120.6 126 115.8 131.1 118.3 132.8 118.6 138.3 116.2"/>
          <path class="st15" d="M153.1,107.3c5-8.9,8.1-37.6,8.1-37.6,0,0,3.1-12.5-5.6-14.1-1.3-.2-21.8,6.4-23,8.3-1.3,2-5.1,16.8-5.1,16.8l1,2.2s-2.8,5-2.8,5.5-1.3,19.6-1.3,19.6c0,0,27.4,1.5,28.7-.7Z"/>
          <path class="st22" d="M127.5,57.1c-.8-3.7-.2-7.5.8-7.8,1-.3,2,3.1,2.8,6.8.8,3.7,1.8,7.2.8,7.4s-3.7-2.8-4.5-6.4Z"/>
          <path class="st15" d="M128.3,56.8c-1.1-4.1-.7-7.9.3-8.3,1.1-.4,2.8,2.6,3.9,6.7,1.1,4.1,1.1,7.8,0,8.2-1.1.4-3.1-2.5-4.2-6.6Z"/>
          <path class="st0" d="M129.4,56.8c-.8-4-.3-7.8.8-8.2,1.1-.4,2.6,2.6,3.4,6.6.8,4,.6,7.6-.5,8-1.1.4-2.9-2.4-3.8-6.4Z"/>
          <path class="st15" d="M125.4,31.9c2.9-3.4,13.9-9.8,26.5-6.9,2.4.6,3.5,12,3.5,12,0,0,5.2,6.6,5.7,7.8.6,1.3-3.6,6.4-3.6,6.4,0,0,6.2-.4-2.2,5.5-8,5.5-16.7,9.7-22.7,7.6-1.6-.6-.7-2.3.4-2.5-1.5.2-2.2-1.9-.9-2.7-1.8-5.2-5.6-17.6-6.6-22.8-2.1,0-.6-3.8,0-4.4Z"/>
          <path class="st0" d="M153,26.1c1.6,3.3,2.9,10.6,2.9,10.6,0,0,5.1,6.7,5.6,7.9.6,1.3-3.1,6-3.1,6,0,0,5.7.8-2.8,6.7-7.5,5.2-15.5,9.1-22.2,7.4,4.6.4,11.8-1.7,12-3.5.2-1.9-5.2,2.8-13.3,1.1.2-.2.5-.4.8-.4-.4,0-.8,0-1-.3,2.9.6,10.1.1,9.6-1.5-.4-1.6-6.6,1.4-9.8-.7,0,0,.3-.2.3-.2-1.8-5.2-5.8-17.3-6.6-22.8-.3,0-1.2,0-1.2-1.2,5.2.4,26.2-9.8,28.6-9Z"/>
          <path class="st10" d="M149.6,49.4l-8-18.4-16,5.3c1.3,7.3,3.6,15.8,6.6,22.8,0,0,14.1-4.1,17.4-9.7Z"/>
          <path class="st6" d="M135,48.9c-.5-5-1.5-9.5-2.8-13.3l8.8-2.9,7.2,16.3c-2.1,3.5-9,6.4-12.9,7.8,0-2.5,0-5.2-.3-7.9Z"/>
          <path class="st16" d="M130.6,36c1.7,5.6,1.8,12.7.5,18.5-2-5.5-3.6-11.7-4.6-17.1l4-1.4Z"/>
          <path class="st22" d="M147.2,44.1l2.3,5.3c-1.2,2-3.7,3.8-6.5,5.3-1.2-4.7,1-9.5,4.1-10.6Z"/>
          <path class="st22" d="M148.8,49.3l-7.6-17.7c-2.6.9-15.7,5.1-15.7,5.1l-.3-.4,16.5-5.7,8.2,18.7h0c-2.8,4.8-12.7,8.6-17.8,10.1v-.2c-.1,0-.2-.2-.2-.3.6-.2,13.6-4.1,17-9.6Z"/>
          <path class="st15" d="M143.6,52.8c0-4.5,2-8.2,4.5-8.2s4.6,3.7,4.6,8.2c0,4.5-2,8.2-4.5,8.2s-4.6-3.7-4.6-8.2Z"/>
          <path class="st22" d="M144.4,52.8c0-4.1,2-7.5,4.4-7.5s4.4,3.4,4.4,7.5-2,7.5-4.4,7.5-4.4-3.4-4.4-7.5Z"/>
          <path class="st0" d="M157.1,174.2h-1.3c-1.3-6.2-5.3-25.3-5.9-28.6-.7-3.9-3.7-29.3-3.7-29.3l-5.3-15.6c7.8-20.5,4.6-37.2,10.5-41.4l10,26.8-4.8,19.6-3.5,12.9s.4,23.6.7,27.3c.3,3.6,3.2,28.4,3.2,28.4Z"/>
          <path class="st13" d="M149.8,67.2c-2.1,3.9,2.3,19.2-2.8,27.9,0,0,6.5-8.4,5.2-15.7-1.3-7.3-2.4-12.2-2.4-12.2Z"/>
          <path class="st11" d="M149,70.3c0-8.1,3.8-14.7,8.6-14.7s8.6,6.6,8.6,14.7-3.8,14.7-8.6,14.7-8.6-6.6-8.6-14.7Z"/>
          <path class="st20" d="M153.4,63.3c0,5.1-1.5,9.6-3.8,12.2-.4-1.6-.6-3.4-.6-5.2,0-5.1,1.5-9.6,3.8-12.2.4,1.6.6,3.4.6,5.2Z"/>
          <path class="st15" d="M171.1,100.3c-.2-2.6,8.3-3.4,8.5-.8l-1.1,4.1c0,.8-5.6,1.3-5.7.5l-1.8-3.8Z"/>
          <path class="st26" d="M140.9,100.6c0,.2,8,22.8,21.1,22.8s5.7-1.1,7.7-3.3c3.1-3.4,4.7-9.4,4.6-16.7-.1-1.2,2.7-1.5,2.8-.3.2,8.3-1.7,14.9-5.4,18.9-2.5,2.8-5.8,4.2-9.8,4.2-15.1,0-23.4-23.6-23.7-24.6l2.6-.9Z"/>
          <path class="st11" d="M144.5,111.8c-1.7-4.6-3.7-8.4-5.3-10.6l1.7-.6c0,.2,8,22.8,21.1,22.8s5.7-1.1,7.7-3.3c3.1-3.4,4.7-9.4,4.6-16.7-.1-1.2,2.7-1.5,2.8-.3.2,8.3-1.7,14.9-5.4,18.9-2.5,2.8-5.8,4.2-9.8,4.2-6.8,0-12.1-4.7-16.1-10.1-.4-1.4-.9-2.8-1.5-4.3Z"/>
          <path class="st19" d="M144.8,174.8h13s-1.8-4.1-2.6-4.2c-1.7-.2-10.3,4.2-10.3,4.2Z"/>
          <path class="st19" d="M99.9,174.8h11.7s-.3-3.9-1.1-4c-1.7-.2-10.5,4-10.5,4Z"/>
          <polygon class="st14" points="148.7 96.3 145.1 94.6 101.5 121.2 102 122.2 143.5 99.8 164.4 102.7 172.8 94.8 167.7 89.4 148.7 96.3"/>
          <polygon class="st9" points="148.7 96.3 144.3 97.2 101.8 121.7 102 122.2 143.5 99.8 164.4 102.7 172.8 94.8 167.7 89.4 148.7 96.3"/>
          <path class="st15" d="M164.9,93.8c-3.3,4.4-12.7,13.9-14.3,14.4-1.6.5-6.9-2.8-7-4.6,0-1.7,7.4-16,8-17.5.6-1.5-1.2-11.9-.8-16,.3-2.8,3.3-10.2,5.5-12,2.1-1.7,3.3-.5,4.7.5,1.5,1.1,8.3,13.2,8.5,15.9.2,2.7-1.2,4.9-1.7,5.8-.5.9,4.3,3.7-3,13.3Z"/>
          <path class="st0" d="M151.2,85.9c.5-1.1,0-7.4-.3-12.2.6,3.4,1.9,6.6,3.4,9.1-2.3,3.2-.8,6.6,4.7,8,6.1,1.6,9.1-4.7,6.7-10.3.6-2.3.9-5.1.7-8.1-.2-3.5-1.1-6.8-2.3-9.4,2.4,4.1,5.9,9.5,6,11.3.2,2.7-.9,5.4-1.4,6.4-.5.9,4.2,3.7-3.1,13.3-3.3,4.4-13.4,13.6-15.1,14.1-1.6.5-6.9-2.8-7-4.6,0-1.7,7-16.2,7.6-17.7Z"/>
          <path class="st19" d="M161.9,99.6c-1.2-6.7-11.8-12.2-11.8-12.2l-12.2,14.9,7,7,17-9.7Z"/>
          <path class="st21" d="M152.3,98.8c2.1-2.1,3.8-4.2,5.2-6.2,2.1,2,4,4.4,4.5,7l-19.9,11.5,2.4-3.7c3.3-1.5,4.4-5.2,7.8-8.6Z"/>
          <polygon class="st2" points="88.4 141.4 103.2 121.5 102.5 120.5 80.8 126.3 88.4 141.4"/>
          <polygon class="st13" points="125.6 88.4 129.1 83.5 135.7 80.2 129.4 81.9 127.5 80.7 128.2 83 125.6 88.4"/>
          <path class="st15" d="M87.4,130c6.8-2.4,12.4-5.8,15.4-9l.4.6-14.7,19.9-5.2-10.2c1.3-.4,2.7-.8,4.1-1.3Z"/>
          <polygon class="st26" points="100.4 121.1 105.4 118.8 105.9 120.1 101.9 123.3 100.4 121.1"/>
          <path class="st27" d="M145.7,52.8c0-2.7,1.3-5,2.9-5s2.9,2.2,2.9,5-1.3,5-2.9,5-2.9-2.2-2.9-5Z"/>
          <path class="st21" d="M146.6,53.1c0-1.1.5-1.9,1.1-1.9s1.1.9,1.1,1.9-.5,1.9-1.1,1.9-1.1-.9-1.1-1.9Z"/>
          <path class="st15" d="M151.2,42.3c2,.8,7.1,0,7.3-.7.2-.6-2.5-3.8-3.5-4-1-.1-4.9,4.3-3.8,4.7Z"/>
          <polygon class="st9" points="129.8 111 128.1 113.3 131.7 115.5 134 113 135.1 113.4 131.6 116.7 121.5 111.4 124.2 109.8 129.8 111"/>
          <g>
            <path class="st19" d="M141,100.3c-3,1.6-6.9,3.5-8.1,4.3s-3.5,3.6-3.4,4.7c.1,1.1,4.2,2.2,4.9,2.2.7,0,1.4-1.7,1-2.2s-1.4-1.2-1.3-1.6c.1-.4.5-.8.5-.8,0,0,5.7-4,6.4-6.7Z"/>
            <path class="st19" d="M138.8,110.5c-.3-1.2-2.3-1.3-2.5-.7-.2.6-2.5,4.3-1.9,5,.6.7,2.6,1,2.9.6.4-.4,1.8-3.9,1.5-4.9Z"/>
            <path class="st19" d="M141.6,111.5c-.3-1.1-2.2-1.4-2.4-.9-.2.6-1.9,3.6-1.3,4.3.6.7,2.1,1.4,2.5,1,.3-.4,1.6-3.6,1.3-4.5Z"/>
            <path class="st9" d="M135.8,108.6c-1.5-.5-4.9-1.6-5-2.6l-7.7,4.3,11.8,2.1.9-3.7Z"/>
            <path class="st19" d="M141.7,98s-2.9,3.8-4,4.3c-1.7.8-.5,1.1-2.8,2.9-.7.5-4.6,5.4-4.4,7.2.9-.4,9.6,2.8,9.6,2.8,0,0,2.5-3.1,3.5-5.8.3-.8,2.9-3.5,4.4-5.1,1.8-1.9-6.3-6.3-6.3-6.3Z"/>
          </g>
          <path class="st19" d="M113.1,108.6c-3.3,1.2-5.2,2-5.7,3.4-.5,1.4.5,5.6,1.2,6.5.8.9,3.6-1.4,4.1-1.8.5-.4.2-2.2-.5-2.4-.6-.2-2.5.2-2.6-.1-.1-.4,0-.9,0-.9,0,0,6.6-.1,3.5-4.6Z"/>
          <path class="st19" d="M112.3,116.7c-.7-1-2.6-.6-2.6,0,0,.7-.7,4.5,0,5,.7.5,2.6.1,2.8-.4.2-.5.4-3.8-.2-4.6Z"/>
          <path class="st19" d="M115.7,116.2c-.7-1-2.6-.6-2.6,0,0,.7-.7,4.5,0,5,.7.5,2.6-.1,2.8-.6.2-.5.3-3.6-.2-4.4Z"/>
          <path class="st19" d="M119.2,115.1c-.7-1-2.7-.7-2.7,0,0,.6-.9,4.7-.1,5.3.8.5,2.8,0,3-.5.2-.5.4-3.9-.2-4.7Z"/>
          <path class="st19" d="M134.7,110.3c0-1.2-1.9-1.9-2.2-1.3-.4.5-3,3.4-2.7,4.2.4.8,1.8,1.8,2.2,1.5.5-.3,2.7-3.3,2.7-4.3Z"/>
        </g>
        <path class="st23" d="M277.3,174.4H24.3s45.3,9.5,134.5,9.5,118.5-9.5,118.5-9.5Z"/>
      </g>
    </g>
  </g>
</svg>